<svg width="35" height="33" viewBox="0 0 35 33" fill="none" xmlns="http://www.w3.org/2000/svg">
<g clip-path="url(#clip0_2545_15932)">
<path d="M10.8675 25.6622C5.05849 25.6622 0.333008 20.4662 0.333008 14.0778V5.75142C0.333008 3.80796 1.35853 3.18883 2.54597 2.47252C2.65392 2.40728 2.76727 2.33926 2.88331 2.26707L4.00868 1.57436C4.40405 1.33143 4.91546 1.46331 5.15025 1.87005C5.38639 2.27679 5.2582 2.80152 4.86283 3.04445L3.73746 3.73716C3.61602 3.81212 3.49997 3.88153 3.38798 3.94955C2.26395 4.62838 1.99813 4.82411 1.99813 5.75142V14.0778C1.99813 19.5209 5.97606 23.9492 10.8662 23.9492C15.7563 23.9492 19.7342 19.5209 19.7342 14.0778V5.72782C19.7342 4.81439 19.4981 4.63809 18.3835 3.95511C18.2661 3.88292 18.1447 3.80935 18.0178 3.73022L16.914 3.04029C16.5214 2.79458 16.3959 2.26707 16.6347 1.86311C16.8736 1.45914 17.385 1.33004 17.779 1.57575L18.8828 2.26568C19.0042 2.34203 19.1229 2.41422 19.2349 2.48224C20.3968 3.19299 21.4007 3.80657 21.4007 5.72782V14.0778C21.4007 20.4662 16.6752 25.6622 10.8662 25.6622H10.8675Z" fill="#F87700"/>
<path d="M20.7607 33C18.182 33 15.7087 32.349 13.7979 31.1648C11.5418 29.7683 10.129 27.6916 9.71206 25.1623C9.63515 24.6959 9.94011 24.253 10.3935 24.1753C10.8455 24.0962 11.2773 24.4099 11.3542 24.8777C11.8414 27.8346 14.5968 31.287 20.7607 31.287C26.4226 31.287 31.028 26.8587 31.028 21.4156C31.028 20.9422 31.4004 20.5591 31.8606 20.5591C32.3207 20.5591 32.6931 20.9422 32.6931 21.4156C32.6931 27.804 27.3402 33 20.7607 33Z" fill="#F87700"/>
<path d="M31.8607 18.7738C33.226 18.7738 34.3328 17.6352 34.3328 16.2307C34.3328 14.8261 33.226 13.6875 31.8607 13.6875C30.4954 13.6875 29.3887 14.8261 29.3887 16.2307C29.3887 17.6352 30.4954 18.7738 31.8607 18.7738Z" fill="#F87700"/>
<path d="M33.097 16.2306C33.097 16.933 32.5438 17.5021 31.861 17.5021C31.1782 17.5021 30.625 16.933 30.625 16.2306C30.625 15.5281 31.1782 14.959 31.861 14.959C32.5438 14.959 33.097 15.5281 33.097 16.2306Z" fill="#F87700"/>
<path d="M6.82629 0H6.03961C5.60514 0 5.25293 0.362342 5.25293 0.809314C5.25293 1.25629 5.60514 1.61863 6.03961 1.61863H6.82629C7.26076 1.61863 7.61297 1.25629 7.61297 0.809314C7.61297 0.362342 7.26076 0 6.82629 0Z" fill="#F87700"/>
<path d="M15.4757 0H14.689C14.2546 0 13.9023 0.362342 13.9023 0.809314C13.9023 1.25629 14.2546 1.61863 14.689 1.61863H15.4757C15.9102 1.61863 16.2624 1.25629 16.2624 0.809314C16.2624 0.362342 15.9102 0 15.4757 0Z" fill="#F87700"/>
</g>
<defs>
<clipPath id="clip0_2545_15932">
<rect width="34" height="33" fill="white" transform="translate(0.333008)"/>
</clipPath>
</defs>
</svg>
