<svg width="27" height="24" viewBox="0 0 27 24" fill="none" xmlns="http://www.w3.org/2000/svg">
<path d="M26.6017 11.0432C27.3444 8.49977 27.0189 6.04585 25.8767 3.75877C23.3199 -1.36562 15.2465 -1.0662 13.4996 3.54111C11.7527 -1.0662 3.67928 -1.36562 1.12241 3.75877C-0.0208447 6.05027 -0.345282 8.50971 0.40291 11.0587L2.23476 14.7622C2.5261 15.1787 2.84722 15.5964 3.20035 16.0151C5.14697 18.3276 8.62529 20.8412 12.7426 23.758C13.1961 24.0796 13.803 24.0796 14.2566 23.758C18.3738 20.8412 21.8522 18.3287 23.7988 16.0151C24.0758 15.6858 24.3329 15.3577 24.5724 15.0296L26.6006 11.041L26.6017 11.0432Z" fill="#F87700"/>
</svg>
