<svg width="35" height="29" viewBox="0 0 35 29" fill="none" xmlns="http://www.w3.org/2000/svg">
<path d="M33.1712 6.7417H25.7387V1.55814C25.7387 0.697096 25.0654 0 24.2339 0H11.0924C10.2647 0 9.59404 0.69443 9.59404 1.55147V6.7417H2.17307C1.34151 6.7417 0.666992 7.44013 0.666992 8.30117V27.0801C0.666992 27.9371 1.33765 28.6316 2.16535 28.6316H33.1686C33.9963 28.6316 34.667 27.9371 34.667 27.0801V8.29051C34.667 7.4348 33.9976 6.7417 33.1712 6.7417ZM9.56185 24.2384H6.57931V21.1501H9.56185V24.2384ZM9.56185 18.6456H6.57931V15.5574H9.56185V18.6456ZM15.9595 24.2384H12.9769V21.1501H15.9595V24.2384ZM15.9595 18.6456H12.9769V15.5574H15.9595V18.6456ZM16.6687 11.4148V8.79834H14.1419V6.72971H16.6687V4.11327H18.6665V6.72971H21.1934V8.79834H18.6665V11.4148H16.6687ZM22.3571 24.2384H19.3745V21.1501H22.3571V24.2384ZM22.3571 18.6456H19.3745V15.5574H22.3571V18.6456ZM28.7547 24.2384H25.7721V21.1501H28.7547V24.2384ZM28.7547 18.6456H25.7721V15.5574H28.7547V18.6456Z" fill="#F87700"/>
</svg>
