<svg width="10" height="10" viewBox="0 0 10 10" fill="none" xmlns="http://www.w3.org/2000/svg">
<g opacity="0.5">
<path d="M8.78753 10H0.505031C0.371088 10 0.242632 9.94687 0.14792 9.85229C0.0532084 9.75771 0 9.62943 0 9.49568V1.22481C0 1.09106 0.0532084 0.96278 0.14792 0.868202C0.242632 0.773623 0.371088 0.720489 0.505031 0.720489H3.92481C4.05875 0.720489 4.18721 0.773623 4.28192 0.868202C4.37663 0.96278 4.42984 1.09106 4.42984 1.22481C4.42984 1.35856 4.37663 1.48684 4.28192 1.58142C4.18721 1.676 4.05875 1.72913 3.92481 1.72913H1.01006V8.99136H8.2825V6.13113C8.2825 5.99738 8.33571 5.8691 8.43042 5.77453C8.52514 5.67995 8.65359 5.62681 8.78753 5.62681C8.92148 5.62681 9.04993 5.67995 9.14464 5.77453C9.23936 5.8691 9.29257 5.99738 9.29257 6.13113V9.49568C9.29088 9.62891 9.23713 9.75621 9.14278 9.85043C9.04843 9.94465 8.92095 9.99832 8.78753 10Z" fill="#777777"/>
<path d="M9.50901 3.04624e-05H6.15416C6.02022 3.04624e-05 5.89176 0.0531641 5.79705 0.147743C5.70234 0.242321 5.64913 0.370597 5.64913 0.504352C5.64913 0.638106 5.70234 0.766382 5.79705 0.860961C5.89176 0.955539 6.02022 1.00867 6.15416 1.00867H8.2825L4.28555 5.00001C4.19187 5.09515 4.13938 5.22322 4.13938 5.35664C4.13938 5.49006 4.19187 5.61814 4.28555 5.71327C4.33203 5.7594 4.3872 5.79589 4.44788 5.82062C4.50855 5.84535 4.57353 5.85784 4.63907 5.85736C4.77104 5.85633 4.89758 5.80475 4.99259 5.71327L8.98955 1.72193V3.84728C8.98955 3.98104 9.04276 4.10931 9.13747 4.20389C9.23218 4.29847 9.36063 4.3516 9.49458 4.3516C9.62852 4.3516 9.75698 4.29847 9.85169 4.20389C9.9464 4.10931 9.99961 3.98104 9.99961 3.84728V0.504352C10.0023 0.438633 9.99148 0.373064 9.96795 0.311634C9.94442 0.250203 9.90862 0.194196 9.86273 0.147019C9.81683 0.0998425 9.76181 0.062483 9.701 0.0372136C9.64019 0.0119442 9.57487 -0.000706758 9.50901 3.04624e-05Z" fill="#777777"/>
</g>
</svg>
