<svg width="38" height="30" viewBox="0 0 38 30" fill="none" xmlns="http://www.w3.org/2000/svg">
<path opacity="0.3" d="M12.36 30.32C15.9047 30.32 19.0405 28.8973 21.273 26.2205C23.4934 23.5582 24.76 19.7319 24.76 15H22.76C22.76 19.3881 21.5866 22.7218 19.737 24.9395C17.8995 27.1427 15.3353 28.32 12.36 28.32V30.32ZM24.76 15C24.76 10.2681 23.4934 6.44184 21.273 3.77951C19.0405 1.10271 15.9047 -0.32 12.36 -0.32V1.68C15.3353 1.68 17.8995 2.85729 19.737 5.06049C21.5866 7.27816 22.76 10.6119 22.76 15H24.76ZM12.36 -0.32C8.7971 -0.32 5.65119 1.10131 3.41281 3.77858C1.18661 6.44129 -0.08 10.2681 -0.08 15H1.92C1.92 10.6119 3.09339 7.27871 4.94719 5.06142C6.78881 2.85869 9.3629 1.68 12.36 1.68V-0.32ZM-0.08 15C-0.08 19.7319 1.18661 23.5587 3.41281 26.2214C5.65119 28.8987 8.7971 30.32 12.36 30.32V28.32C9.3629 28.32 6.78881 27.1413 4.94719 24.9386C3.09339 22.7213 1.92 19.3881 1.92 15H-0.08ZM12.36 24.76C10.4662 24.76 8.91186 24.0021 7.79776 22.4755C6.65629 20.9114 5.92 18.4565 5.92 15H3.92C3.92 18.7035 4.70371 21.6286 6.18224 23.6545C7.68814 25.7179 9.85383 26.76 12.36 26.76V24.76ZM5.92 15C5.92 11.5435 6.65629 9.08858 7.79776 7.52451C8.91186 5.99794 10.4662 5.24 12.36 5.24V3.24C9.85383 3.24 7.68814 4.28206 6.18224 6.34549C4.70371 8.37142 3.92 11.2965 3.92 15H5.92ZM12.36 5.24C14.2308 5.24 15.7756 5.99546 16.8862 7.52304C18.0238 9.08778 18.76 11.5437 18.76 15H20.76C20.76 11.2963 19.9762 8.37221 18.5038 6.34696C17.0044 4.28454 14.8492 3.24 12.36 3.24V5.24ZM18.76 15C18.76 18.4563 18.0238 20.9122 16.8862 22.477C15.7756 24.0045 14.2308 24.76 12.36 24.76V26.76C14.8492 26.76 17.0044 25.7155 18.5038 23.653C19.9762 21.6278 20.76 18.7037 20.76 15H18.76ZM27.4825 0.999998V-1.90735e-06H26.4825V0.999998H27.4825ZM27.4825 4.48H26.4825V5.48H27.4825V4.48ZM33.8025 4.48H34.8025V3.48H33.8025V4.48ZM33.8025 29H32.8025V30H33.8025V29ZM37.7625 29V30H38.7625V29H37.7625ZM37.7625 0.999998H38.7625V-1.90735e-06H37.7625V0.999998ZM26.4825 0.999998V4.48H28.4825V0.999998H26.4825ZM27.4825 5.48H33.8025V3.48H27.4825V5.48ZM32.8025 4.48V29H34.8025V4.48H32.8025ZM33.8025 30H37.7625V28H33.8025V30ZM38.7625 29V0.999998H36.7625V29H38.7625ZM37.7625 -1.90735e-06H27.4825V2H37.7625V-1.90735e-06Z" fill="#F87700"/>
</svg>
