<svg width="48" height="30" viewBox="0 0 48 30" fill="none" xmlns="http://www.w3.org/2000/svg">
<path opacity="0.3" d="M11.693 30.32C15.2377 30.32 18.3735 28.8973 20.606 26.2205C22.8264 23.5582 24.093 19.7319 24.093 15H22.093C22.093 19.3881 20.9196 22.7218 19.07 24.9395C17.2325 27.1427 14.6683 28.32 11.693 28.32V30.32ZM24.093 15C24.093 10.2681 22.8264 6.44184 20.606 3.77951C18.3735 1.10271 15.2377 -0.32 11.693 -0.32V1.68C14.6683 1.68 17.2325 2.85729 19.07 5.06049C20.9196 7.27816 22.093 10.6119 22.093 15H24.093ZM11.693 -0.32C8.13011 -0.32 4.9842 1.10131 2.74582 3.77858C0.519619 6.44129 -0.746992 10.2681 -0.746992 15H1.25301C1.25301 10.6119 2.4264 7.27871 4.2802 5.06142C6.12182 2.85869 8.69591 1.68 11.693 1.68V-0.32ZM-0.746992 15C-0.746992 19.7319 0.519619 23.5587 2.74582 26.2214C4.9842 28.8987 8.13011 30.32 11.693 30.32V28.32C8.69591 28.32 6.12182 27.1413 4.2802 24.9386C2.4264 22.7213 1.25301 19.3881 1.25301 15H-0.746992ZM11.693 24.76C9.79918 24.76 8.24487 24.0021 7.13077 22.4755C5.9893 20.9114 5.25301 18.4565 5.25301 15H3.25301C3.25301 18.7035 4.03671 21.6286 5.51525 23.6545C7.02115 25.7179 9.18684 26.76 11.693 26.76V24.76ZM5.25301 15C5.25301 11.5435 5.9893 9.08858 7.13077 7.52451C8.24487 5.99794 9.79918 5.24 11.693 5.24V3.24C9.18684 3.24 7.02115 4.28206 5.51525 6.34549C4.03671 8.37142 3.25301 11.2965 3.25301 15H5.25301ZM11.693 5.24C13.5638 5.24 15.1086 5.99546 16.2192 7.52304C17.3568 9.08778 18.093 11.5437 18.093 15H20.093C20.093 11.2963 19.3092 8.37221 17.8368 6.34696C16.3374 4.28454 14.1822 3.24 11.693 3.24V5.24ZM18.093 15C18.093 18.4563 17.3568 20.9122 16.2192 22.477C15.1086 24.0045 13.5638 24.76 11.693 24.76V26.76C14.1822 26.76 16.3374 25.7155 17.8368 23.653C19.3092 21.6278 20.093 18.7037 20.093 15H18.093ZM38.8621 12.76L38.0849 12.1307L36.909 13.5829L38.7696 13.7557L38.8621 12.76ZM46.1821 3.72L46.9592 4.3493L47.1821 4.0741V3.72H46.1821ZM46.1821 0.999998H47.1821V-1.90735e-06H46.1821V0.999998ZM27.7021 0.999998V-1.90735e-06H26.7021V0.999998H27.7021ZM27.7021 4.48H26.7021V5.48H27.7021V4.48ZM41.1821 4.48L41.9573 5.11167L43.2868 3.48H41.1821V4.48ZM34.1421 13.12L33.3668 12.4883L33.1421 12.7642V13.12H34.1421ZM34.1421 15.92H33.1421V16.92H34.1421V15.92ZM28.2621 22.76L28.9455 22.03L28.0294 21.1723L27.3979 22.2568L28.2621 22.76ZM26.4221 25.92L25.5579 25.4168L25.1484 26.1201L25.7538 26.6639L26.4221 25.92ZM39.6392 13.3893L46.9592 4.3493L45.4049 3.0907L38.0849 12.1307L39.6392 13.3893ZM47.1821 3.72V0.999998H45.1821V3.72H47.1821ZM46.1821 -1.90735e-06H27.7021V2H46.1821V-1.90735e-06ZM26.7021 0.999998V4.48H28.7021V0.999998H26.7021ZM27.7021 5.48H41.1821V3.48H27.7021V5.48ZM40.4068 3.84833L33.3668 12.4883L34.9173 13.7517L41.9573 5.11167L40.4068 3.84833ZM33.1421 13.12V15.92H35.1421V13.12H33.1421ZM34.1421 16.92H36.3821V14.92H34.1421V16.92ZM36.3821 16.92C38.6723 16.92 40.1538 17.3818 41.0409 18.0492C41.8823 18.6821 42.3021 19.5842 42.3021 20.8H44.3021C44.3021 19.0558 43.6618 17.5179 42.2432 16.4508C40.8704 15.4182 38.8919 14.92 36.3821 14.92V16.92ZM42.3021 20.8C42.3021 22.0278 41.8323 22.9662 40.9698 23.6255C40.075 24.3095 38.6651 24.76 36.7021 24.76V26.76C38.939 26.76 40.8291 26.2505 42.1844 25.2145C43.5719 24.1538 44.3021 22.6122 44.3021 20.8H42.3021ZM36.7021 24.76C33.4794 24.76 30.6152 23.5931 28.9455 22.03L27.5786 23.49C29.669 25.4469 33.0447 26.76 36.7021 26.76V24.76ZM27.3979 22.2568L25.5579 25.4168L27.2862 26.4232L29.1262 23.2632L27.3979 22.2568ZM25.7538 26.6639C28.3447 28.9914 32.5275 30.32 36.7021 30.32V28.32C32.8767 28.32 29.2194 27.0886 27.0903 25.1761L25.7538 26.6639ZM36.7021 30.32C40.4371 30.32 43.3449 29.3113 45.333 27.5605C47.3306 25.8012 48.3021 23.3765 48.3021 20.76H46.3021C46.3021 22.8635 45.5336 24.7188 44.0112 26.0595C42.4792 27.4087 40.087 28.32 36.7021 28.32V30.32ZM48.3021 20.76C48.3021 18.3706 47.5104 16.2319 45.8854 14.6241C44.2699 13.0258 41.9202 12.0397 38.9545 11.7643L38.7696 13.7557C41.4039 14.0003 43.2742 14.8542 44.4788 16.0459C45.6737 17.2281 46.3021 18.8294 46.3021 20.76H48.3021Z" fill="#F87700"/>
</svg>
