<svg width="49" height="30" viewBox="0 0 49 30" fill="none" xmlns="http://www.w3.org/2000/svg">
<path opacity="0.3" d="M12.027 30.32C15.5717 30.32 18.7075 28.8973 20.94 26.2205C23.1604 23.5582 24.427 19.7319 24.427 15H22.427C22.427 19.3881 21.2536 22.7218 19.404 24.9395C17.5665 27.1427 15.0023 28.32 12.027 28.32V30.32ZM24.427 15C24.427 10.2681 23.1604 6.44184 20.94 3.77951C18.7075 1.10271 15.5717 -0.32 12.027 -0.32V1.68C15.0023 1.68 17.5665 2.85729 19.404 5.06049C21.2536 7.27816 22.427 10.6119 22.427 15H24.427ZM12.027 -0.32C8.46409 -0.32 5.31818 1.10131 3.0798 3.77858C0.853603 6.44129 -0.413008 10.2681 -0.413008 15H1.58699C1.58699 10.6119 2.76038 7.27871 4.61418 5.06142C6.45581 2.85869 9.0299 1.68 12.027 1.68V-0.32ZM-0.413008 15C-0.413008 19.7319 0.853603 23.5587 3.0798 26.2214C5.31818 28.8987 8.46409 30.32 12.027 30.32V28.32C9.0299 28.32 6.45581 27.1413 4.61418 24.9386C2.76038 22.7213 1.58699 19.3881 1.58699 15H-0.413008ZM12.027 24.76C10.1332 24.76 8.57885 24.0021 7.46475 22.4755C6.32329 20.9114 5.58699 18.4565 5.58699 15H3.58699C3.58699 18.7035 4.3707 21.6286 5.84923 23.6545C7.35513 25.7179 9.52082 26.76 12.027 26.76V24.76ZM5.58699 15C5.58699 11.5435 6.32329 9.08858 7.46475 7.52451C8.57885 5.99794 10.1332 5.24 12.027 5.24V3.24C9.52082 3.24 7.35513 4.28206 5.84923 6.34549C4.3707 8.37142 3.58699 11.2965 3.58699 15H5.58699ZM12.027 5.24C13.8978 5.24 15.4426 5.99546 16.5532 7.52304C17.6908 9.08778 18.427 11.5437 18.427 15H20.427C20.427 11.2963 19.6432 8.37221 18.1708 6.34696C16.6714 4.28454 14.5162 3.24 12.027 3.24V5.24ZM18.427 15C18.427 18.4563 17.6908 20.9122 16.5532 22.477C15.4426 24.0045 13.8978 24.76 12.027 24.76V26.76C14.5162 26.76 16.6714 25.7155 18.1708 23.653C19.6432 21.6278 20.427 18.7037 20.427 15H18.427ZM34.0695 25.52L33.376 24.7996L31.5887 26.52H34.0695V25.52ZM42.6295 17.28L41.9378 16.5579L41.936 16.5596L42.6295 17.28ZM27.3895 4.92L26.6109 4.29247L26.0057 5.04332L26.7341 5.67532L27.3895 4.92ZM30.1095 7.28L29.4541 8.03532L30.2276 8.7064L30.8801 7.91726L30.1095 7.28ZM39.7095 15.28L40.4039 15.9996L40.4068 15.9967L39.7095 15.28ZM28.3095 26.28L27.6151 25.5604L27.3095 25.8553V26.28H28.3095ZM28.3095 29H27.3095V30H28.3095V29ZM48.4295 29V30H49.4295V29H48.4295ZM48.4295 25.52H49.4295V24.52H48.4295V25.52ZM34.763 26.2404L43.323 18.0004L41.936 16.5596L33.376 24.7996L34.763 26.2404ZM43.3212 18.0021C45.2716 16.1339 46.5109 14.5187 47.2559 12.968C48.01 11.3983 48.2295 9.95316 48.2295 8.48H46.2295C46.2295 9.72684 46.049 10.8617 45.4531 12.102C44.8481 13.3613 43.7873 14.7861 41.9378 16.5579L43.3212 18.0021ZM48.2295 8.48C48.2295 5.79445 47.1655 3.55228 45.2482 2.00232C43.3537 0.470837 40.7103 -0.32 37.6295 -0.32V1.68C40.3887 1.68 42.5453 2.38916 43.9908 3.55768C45.4135 4.70772 46.2295 6.36555 46.2295 8.48H48.2295ZM37.6295 -0.32C33.0487 -0.32 29.0067 1.31993 26.6109 4.29247L28.1681 5.54752C30.0923 3.16007 33.4903 1.68 37.6295 1.68V-0.32ZM26.7341 5.67532L29.4541 8.03532L30.7648 6.52468L28.0448 4.16468L26.7341 5.67532ZM30.8801 7.91726C32.3698 6.11578 34.4979 5.24 37.2695 5.24V3.24C34.0411 3.24 31.2892 4.28421 29.3388 6.64273L30.8801 7.91726ZM37.2695 5.24C39.0973 5.24 40.3342 5.65239 41.0948 6.26087C41.8229 6.84335 42.2295 7.69641 42.2295 8.88H44.2295C44.2295 7.18359 43.6161 5.71664 42.3442 4.69913C41.1048 3.70761 39.3617 3.24 37.2695 3.24V5.24ZM42.2295 8.88C42.2295 9.63218 42.1143 10.3543 41.6851 11.2128C41.2436 12.0957 40.4479 13.1663 39.0121 14.5633L40.4068 15.9967C41.9311 14.5137 42.8954 13.2643 43.4739 12.1072C44.0647 10.9257 44.2295 9.88782 44.2295 8.88H42.2295ZM39.0151 14.5604L27.6151 25.5604L29.0039 26.9996L40.4039 15.9996L39.0151 14.5604ZM27.3095 26.28V29H29.3095V26.28H27.3095ZM28.3095 30H48.4295V28H28.3095V30ZM49.4295 29V25.52H47.4295V29H49.4295ZM48.4295 24.52H34.0695V26.52H48.4295V24.52Z" fill="#F87700"/>
</svg>
