<svg width="366" height="111" viewBox="0 0 366 111" fill="none" xmlns="http://www.w3.org/2000/svg">
<g clip-path="url(#clip0_1625_39495)">
<path d="M350.868 0H340.484C340.084 0 339.76 0.324107 339.76 0.723913V11.1C339.76 11.4998 340.084 11.8239 340.484 11.8239H350.868C351.268 11.8239 351.592 11.4998 351.592 11.1V0.723913C351.592 0.324107 351.268 0 350.868 0Z" fill="white"/>
<path d="M336.46 14.3984H326.076C325.676 14.3984 325.352 14.7225 325.352 15.1224V25.4984C325.352 25.8982 325.676 26.2223 326.076 26.2223H336.46C336.86 26.2223 337.184 25.8982 337.184 25.4984V15.1224C337.184 14.7225 336.86 14.3984 336.46 14.3984Z" fill="white"/>
<path d="M365.276 14.3984H354.892C354.492 14.3984 354.168 14.7225 354.168 15.1224V25.4984C354.168 25.8982 354.492 26.2223 354.892 26.2223H365.276C365.676 26.2223 366 25.8982 366 25.4984V15.1224C366 14.7225 365.676 14.3984 365.276 14.3984Z" fill="white"/>
<path d="M350.868 28.7949H340.484C340.084 28.7949 339.76 29.119 339.76 29.5188V39.8949C339.76 40.2947 340.084 40.6188 340.484 40.6188H350.868C351.268 40.6188 351.592 40.2947 351.592 39.8949V29.5188C351.592 29.119 351.268 28.7949 350.868 28.7949Z" fill="white"/>
<path d="M94.3982 68.2496V62.2974C90.8364 66.5001 85.9263 69.2751 78.8027 69.2751C69.0832 69.2751 61.0742 63.3229 61.0742 52.4441V52.243C61.0742 40.2381 69.6467 34.6881 81.8816 34.6881C87.0733 34.6881 90.8364 35.6131 94.4988 36.9403V36.0153C94.4988 29.5403 90.7358 25.961 83.431 25.961C77.8368 25.961 73.8927 27.0871 69.1839 28.9371L65.5214 17.0327C71.1962 14.3583 76.7904 12.6289 85.544 12.6289C101.522 12.6289 108.565 21.4566 108.565 36.3371V68.2496H94.3982ZM94.6799 46.0898C92.1846 44.8631 88.9045 44.0387 85.3427 44.0387C79.0844 44.0387 75.2208 46.7131 75.2208 51.6398V51.8409C75.2208 56.0436 78.5009 58.5169 83.2097 58.5169C90.0516 58.5169 94.6799 54.5153 94.6799 48.8648V46.0898Z" fill="white"/>
<path d="M299.01 69.577C295.066 80.7574 290.82 84.9802 282.067 84.9802C276.774 84.9802 272.83 83.5324 269.067 81.1797L273.977 69.8987C275.909 71.1254 278.304 72.0504 280.236 72.0504C282.731 72.0504 284.079 71.2259 285.347 68.4509L265.123 13.2324H280.638L292.39 50.6949L303.659 13.2324H318.872L299.031 69.577H299.01Z" fill="white"/>
<path d="M285.387 68.491L292.37 50.6948L283.395 22.2812L269.57 25.4182L285.387 68.491Z" fill="white"/>
<path d="M40.3469 68.7717H27.2468L0 0H16.3803L34.0081 48.0799L51.6159 0H67.5937L40.3469 68.7717Z" fill="white"/>
<path d="M27.2471 68.7727L33.9884 48.0808L25.3354 24.4531L11.209 28.2939L27.2471 68.7727Z" fill="white"/>
<path d="M148.911 68.2494V37.5635C148.911 30.1836 145.631 26.3831 140.057 26.3831C134.483 26.3831 130.901 30.1836 130.901 37.5635V68.2494H116.271V13.2521H130.901V21.0543C134.262 16.4293 138.608 12.2266 146.014 12.2266C157.081 12.2266 163.541 20.0287 163.541 32.657V68.2695H148.911V68.2494Z" fill="white"/>
<path d="M130.861 21.0333L130.921 36.1952C130.921 36.1952 130.861 27.6893 138.407 26.4827C139.916 26.2414 140.862 26.4023 140.862 26.4023C140.862 26.4023 148.388 12.286 145.994 12.2056C136.415 11.8838 130.841 21.0333 130.841 21.0333H130.861Z" fill="white"/>
<path d="M70.974 107.219C69.9477 109.25 69.505 109.752 68.8007 109.752C68.1366 109.752 67.1104 109.008 67.1104 108.043C67.1104 107.46 67.372 107.018 67.7141 106.455C70.7728 101.166 71.4972 95.7768 71.96 91.5942C72.0808 90.6089 72.1613 89.7241 73.429 89.7241C73.8315 89.7241 75.0791 89.7643 75.0791 91.2122C75.0791 93.3437 73.7309 101.749 70.9941 107.219H70.974ZM82.6857 92.2779C85.4426 98.2904 87.1731 106.032 87.1731 107.842C87.1731 108.847 86.5896 109.571 85.523 109.571C84.2754 109.571 84.1345 108.807 83.8729 107.38C83.3095 104.042 82.1625 98.0692 79.5867 92.8812C78.983 91.6747 78.9227 91.4736 78.9227 91.2122C78.9227 90.2268 79.8483 89.6839 80.5727 89.6839C81.096 89.6839 81.5588 89.7643 82.6857 92.2578V92.2779ZM84.1345 89.8247C84.2754 90.0861 84.8389 91.373 84.8389 91.8556C84.8389 92.479 84.2955 92.6198 84.0339 92.6198C83.6315 92.6198 83.5912 92.5796 82.9272 90.9709C82.8668 90.81 82.5448 90.1062 82.4442 89.8448C82.3838 89.704 82.3637 89.5431 82.3637 89.4024C82.3637 88.9399 82.8869 88.6986 83.1284 88.6986C83.5711 88.6986 83.7321 88.9198 84.1547 89.8247H84.1345ZM86.3883 88.6181C86.4487 88.7589 87.1933 90.1665 87.1933 90.7497C87.1933 91.3328 86.6902 91.5138 86.3883 91.5138C85.9456 91.5138 85.8249 91.3328 85.181 89.8045C85.1206 89.6236 84.7986 89.0002 84.698 88.7388C84.6376 88.598 84.6376 88.4774 84.6376 88.3768C84.6376 87.854 85.2212 87.6328 85.4023 87.6328C85.7846 87.6328 85.9657 87.7535 86.4085 88.6181H86.3883Z" fill="white" stroke="white" stroke-width="0.3" stroke-miterlimit="10"/>
<path d="M96.1083 90.127C96.5308 90.127 96.9333 90.3079 98.5633 91.2731C103.514 94.2693 103.514 94.7117 103.514 95.4558C103.514 96.1998 102.789 97.2655 102.024 97.2655C101.441 97.2655 100.958 96.9036 99.6499 95.8982C98.5029 95.0134 97.0943 94.1688 95.7259 93.3645C95.2228 93.0628 94.6191 92.7009 94.6191 91.8764C94.6191 90.9514 95.3234 90.3079 95.8265 90.1471C95.9674 90.127 96.068 90.127 96.1083 90.127ZM113.354 93.9074C113.354 95.1541 111.402 100.302 109.168 103.177C106.291 106.918 102.97 108.265 100.314 109.049C98.9859 109.451 97.3559 109.793 96.6918 109.793C95.2832 109.793 95.1423 108.426 95.1423 107.923C95.1423 106.697 95.7662 106.455 96.8126 106.294C103.091 105.49 107.578 102.816 110.255 94.0884C110.657 92.8014 110.778 92.359 111.643 92.359C111.804 92.359 112.006 92.3791 112.207 92.4395C112.69 92.5802 113.354 92.9623 113.354 93.9074Z" fill="white" stroke="white" stroke-width="0.3" stroke-miterlimit="10"/>
<path d="M127.721 104.604C127.721 106.756 128.567 106.796 131.887 106.796C132.33 106.796 134.342 106.796 135.368 106.756C135.71 106.736 137.179 106.615 137.501 106.615C137.904 106.615 138.95 106.615 138.95 108.103C138.95 109.591 137.843 109.752 137.36 109.792C135.73 109.913 133.054 109.933 131.585 109.933C127.299 109.933 124.723 109.752 124.723 104.966V97.4453L121.624 97.747C121.222 97.7872 119.994 97.8475 119.994 96.1584C119.994 94.791 120.779 94.6301 121.383 94.5899L124.703 94.2883V90.2665C124.703 89.7035 124.783 88.7383 126.192 88.7383C127.299 88.7383 127.701 89.2812 127.701 90.2665V94.047L136.596 93.3432C137.964 93.2426 139.011 93.7655 139.011 95.4144C139.011 96.9024 138.125 99.2953 136.475 101.145C135.59 102.131 133.718 103.78 132.611 103.78C131.585 103.78 131.162 102.674 131.162 102.191C131.162 101.548 131.444 101.346 132.571 100.602C133.014 100.281 134.765 98.6519 135.207 97.7671C135.348 97.5057 135.509 97.0834 135.509 96.8421C135.509 96.4399 135.167 96.4801 134.744 96.5203L127.661 97.204V104.644L127.721 104.604Z" fill="white" stroke="white" stroke-width="0.3" stroke-miterlimit="10"/>
<path d="M158.691 109.069C158.691 109.712 158.57 110.698 157.141 110.698C156.055 110.698 155.572 110.175 155.572 109.069V98.5521C152.593 100.181 148.75 101.669 147.663 101.669C146.436 101.669 146.194 100.362 146.194 99.819C146.194 98.7934 146.778 98.5923 147.462 98.3913C153.318 96.6619 158.228 93.4244 160.14 91.6146L162.434 89.4228C163.037 88.8597 163.299 88.7793 163.581 88.7793C164.386 88.7793 165.251 89.5434 165.251 90.5489C165.251 91.0717 165.09 91.4336 164.567 91.9766C163.299 93.2635 161.407 94.9326 158.711 96.6619V109.049L158.691 109.069Z" fill="white" stroke="white" stroke-width="0.3" stroke-miterlimit="10"/>
<path d="M186.863 94.5101C186.501 94.5101 185.374 94.5101 185.374 92.9215C185.374 91.3329 186.501 91.2927 186.863 91.2927H199.5C199.983 91.2927 200.829 91.4134 201.191 91.534C201.05 91.2927 200.849 90.8704 200.849 90.1868C200.849 88.6987 201.935 87.4922 203.264 87.4922C204.592 87.4922 205.698 88.6987 205.698 90.1868C205.698 91.6748 204.612 92.8612 203.264 92.8612C202.921 92.8612 202.72 92.821 202.599 92.7607C202.74 93.0221 202.901 93.4645 202.901 94.4096C202.901 95.8775 202.076 100.844 199.018 104.745C195.576 109.169 190.123 110.396 189.238 110.396C187.97 110.396 187.749 108.988 187.749 108.586C187.749 107.52 188.533 107.339 189.439 107.058C193.866 105.811 197.689 103.197 199.179 97.6672C199.521 96.4607 199.641 95.4552 199.641 95.1938C199.641 94.5302 199.239 94.5101 198.937 94.5101H186.863ZM202.137 90.1868C202.137 90.8704 202.64 91.4335 203.264 91.4335C203.887 91.4335 204.411 90.8906 204.411 90.1868C204.411 89.4829 203.907 88.8998 203.264 88.8998C202.62 88.8998 202.137 89.4829 202.137 90.1868Z" fill="white" stroke="white" stroke-width="0.3" stroke-miterlimit="10"/>
<path d="M211.032 98.954C210.73 98.954 209.623 98.954 209.623 97.4459C209.623 96.0383 210.529 95.9176 211.032 95.9176H225.742C226.406 95.9176 227.915 95.998 227.915 98.029C227.915 98.6926 227.452 102.674 224.836 105.711C222.522 108.405 219.805 109.33 218.135 109.793C216.425 110.275 214.996 110.476 214.453 110.476C213.95 110.476 213.607 110.376 213.366 110.134C213.064 109.873 212.863 109.35 212.863 108.807C212.863 107.601 213.688 107.48 214.553 107.339C217.008 106.937 220.993 106.334 223.307 102.895C224.172 101.588 224.675 99.9192 224.675 99.4768C224.675 99.0143 224.414 98.9339 223.971 98.9339H211.052L211.032 98.954ZM225.46 89.9453C225.762 89.9453 226.828 89.9453 226.828 91.4736C226.828 93.0018 225.802 93.0018 225.46 93.0018H212.682C212.38 93.0018 211.313 93.0018 211.313 91.5138C211.313 90.1062 212.159 89.9654 212.682 89.9654H225.46V89.9453Z" fill="white" stroke="white" stroke-width="0.3" stroke-miterlimit="10"/>
<path d="M235.199 93.0211C234.736 93.0211 233.73 92.9005 233.73 91.4728C233.73 90.3266 234.354 89.9043 235.199 89.9043H246.226C247.252 89.9043 248.641 90.1054 248.641 92.0157C248.641 93.7249 246.951 97.6662 245.019 100.582C246.266 101.608 247.917 103.015 250.573 105.75C251.8 106.997 252.002 107.419 252.002 108.062C252.002 109.088 251.156 109.912 250.291 109.912C249.587 109.912 249.285 109.55 248.52 108.565C246.77 106.353 244.274 103.84 243.308 102.995C240.169 106.896 235.762 110.073 234.454 110.073C233.71 110.073 233.025 109.209 233.025 108.264C233.025 107.499 233.247 107.379 234.816 106.474C241.698 102.492 245.099 94.5092 245.099 93.4635C245.099 93.1016 244.858 93.0614 244.475 93.0614H235.199V93.0211Z" fill="white" stroke="white" stroke-width="0.3" stroke-miterlimit="10"/>
<path d="M190.607 69.1745C183.402 69.1745 175.313 66.6207 168.491 60.8696L174.749 50.6343C180.324 54.9375 186.2 57.1897 190.989 57.1897C195.215 57.1897 197.147 55.5609 197.147 53.0875V52.8864C197.147 49.5082 192.156 48.3821 186.481 46.5321C179.277 44.2799 171.107 40.7006 171.107 30.043V29.8419C171.107 18.6815 179.559 12.4277 189.942 12.4277C196.483 12.4277 203.606 14.7805 209.18 18.7821L203.606 29.5402C198.515 26.3631 193.424 24.4125 189.661 24.4125C186.099 24.4125 184.268 26.0413 184.268 28.193V28.394C184.268 31.4707 189.178 32.8984 194.752 34.9495C201.956 37.5033 210.327 41.2033 210.327 51.2375V51.4386C210.327 63.6245 201.775 69.1544 190.607 69.1544V69.1745Z" fill="white"/>
<path d="M248.541 68.0475V62.1154C244.979 66.3181 240.089 69.073 232.966 69.073C223.246 69.073 215.277 63.1208 215.277 52.2621V52.061C215.277 40.0763 223.83 34.5464 236.044 34.5464C241.236 34.5464 244.979 35.4714 248.642 36.7985V35.8735C248.642 29.4186 244.899 25.8393 237.594 25.8393C232.02 25.8393 228.076 26.9654 223.367 28.8154L219.704 16.9311C225.379 14.2768 230.953 12.5273 239.707 12.5273C255.665 12.5273 262.687 21.335 262.687 36.1953V68.0475H248.561H248.541ZM248.823 45.9279C246.327 44.7013 243.047 43.8768 239.506 43.8768C233.247 43.8768 229.404 46.5311 229.404 51.4578V51.6589C229.404 55.8616 232.664 58.3148 237.393 58.3148C244.214 58.3148 248.843 54.3132 248.843 48.6828V45.9078L248.823 45.9279Z" fill="white"/>
</g>
<defs>
<clipPath id="clip0_1625_39495">
<rect width="366" height="111" fill="white"/>
</clipPath>
</defs>
</svg>
