<svg width="130" height="28" viewBox="0 0 130 28" fill="none" xmlns="http://www.w3.org/2000/svg">
<path d="M15.987 11.1288C14.9163 11.1288 14.0499 12.0273 14.0499 13.1347V16.14L15.9963 18.1411L15.9893 11.1288H15.987Z" fill="#C42222"/>
<path d="M8.64724 17.1562L9.78302 15.9766L2.17395 8.1068C1.78838 8.49356 1.44231 8.92357 1.145 9.38961L8.64724 17.1537V17.1562Z" fill="#C42222"/>
<path d="M6.47575 19.1572L7.61153 17.9825L0.50648 10.6364C0.274212 11.2177 0.109302 11.8375 0.0233627 12.4813L6.47342 19.1572H6.47575Z" fill="#C42222"/>
<path d="M16.333 26.5514C15.4574 27.4475 14.2542 28 12.9257 28C11.5971 28 10.3893 27.4451 9.51367 26.5466L2.08344 18.8546C0.943006 17.675 0.181168 16.104 0 14.3551L10.6564 25.3791C11.2464 25.9893 12.0593 26.3665 12.9605 26.3665C13.8617 26.3665 14.6746 25.9893 15.2646 25.3791L22.7064 17.6798C23.7516 16.618 24.3997 15.1406 24.3997 13.5047C24.3997 10.2736 21.868 7.65516 18.744 7.65516C17.29 7.65516 15.9614 8.2221 14.9603 9.15658L12.9791 11.1937L11.0025 9.15899C9.99911 8.2245 8.67286 7.65516 7.21655 7.65516C6.7915 7.65516 6.38038 7.70321 5.98088 7.7945L14.0382 16.128H11.769L3.19135 7.25879C4.3434 6.46364 5.72539 6 7.21422 6C9.56476 6 11.6528 7.15549 12.9791 8.94518C14.3053 7.15309 16.3934 6 18.744 6C22.7506 6 26 9.36078 26 13.5047C26 15.5971 25.1708 17.4901 23.8353 18.8521L16.333 26.5514Z" fill="#C42222"/>
<path d="M36.2173 18.3485H39.2232V19.1918H36.2173V18.3485ZM35.1762 27.9351C35.5638 27.5691 36.5282 26.698 37.407 24.9975L36.0685 24.3535V24.321H36.2173V21.9209H39.2232V22.5788C39.2232 22.7642 39.1916 22.8847 38.8671 22.8847H37.3214L37.5602 24.321H39.3448C39.8946 24.321 40.6112 24.1681 40.6112 23.1302V17.0882H34.8337V24.321H36.0685C35.8162 24.84 35.2213 25.9103 34 26.8602L35.1762 27.9305V27.9351ZM36.2173 20.1972H39.2232V20.9154H36.2173V20.1972ZM41.4224 16.2542C40.7374 15.1097 40.2462 14.4656 39.6243 13.7753L38.4796 14.461C38.6869 14.6927 38.7905 14.8271 39.0294 15.1329C38.4345 15.1931 38.2993 15.1931 37.0375 15.2719C37.4521 14.4471 37.6008 14.0162 37.736 13.6502L36.2488 13.4648C35.9198 14.4147 35.6089 15.1143 35.4917 15.3321C34.8067 15.346 34.7346 15.3645 34.2118 15.3645L34.3019 16.6943C36.3389 16.6017 38.421 16.421 39.791 16.2495C39.9262 16.4488 39.9532 16.509 40.2236 16.9816L41.4269 16.2495L41.4224 16.2542ZM41.9722 17.2179C41.9722 18.1493 42.5806 18.4087 43.3828 18.4087H46.5059C47.7271 18.4087 47.7992 17.8434 48.0516 15.9623L46.6546 15.5777C46.641 15.6518 46.5374 16.6944 46.5194 16.7268C46.4608 16.9724 46.3391 17.0928 45.8975 17.0928H43.8605C43.6351 17.0928 43.4143 17.0928 43.4143 16.7268V15.9623C44.2165 15.7955 46.0597 15.3645 47.5469 14.5861L46.7717 13.4695C46.1183 13.8216 44.87 14.4471 43.4098 14.7066V13.4695H41.9677V17.2133L41.9722 17.2179ZM41.9722 22.982C41.9722 23.3943 42.1209 24.2052 43.1304 24.2052H46.4923C47.5784 24.2052 47.9209 23.5797 48.1598 21.6522L46.7177 21.2073C46.641 22.1248 46.614 22.324 46.5374 22.5696C46.4473 22.8013 46.2535 22.8893 46.0327 22.8893H43.892C43.6216 22.8893 43.4143 22.7225 43.4143 22.463V21.4854C44.7393 21.2398 46.6275 20.7069 47.5919 20.1833L46.9069 18.8999C45.9245 19.5578 44.3787 20.0304 43.4143 20.1972V18.7748H41.9722V22.982ZM38.8626 24.877C38.8942 25.9149 38.8626 26.698 38.7139 27.7035H40.2597C40.3048 27.2772 40.3048 27.1382 40.3048 26.6331C40.3048 26.5405 40.3048 25.7296 40.2597 24.877H38.8626ZM41.9091 24.9697C42.0308 25.3821 42.2381 26.1003 42.3868 27.8008L43.9776 27.634C43.8424 26.6424 43.6216 25.6138 43.3242 24.8075L41.9091 24.9744V24.9697ZM45.1944 25.0021C45.8659 25.9057 46.4743 26.976 46.9205 28L48.3355 27.2355C47.619 25.7389 46.9069 24.8492 46.5825 24.423L45.1989 25.0021H45.1944Z" fill="#333333"/>
<path d="M56.7405 15.9947V13.4278H58.2593V15.9947H64.4604V17.5562H58.9443C60.3729 20.554 62.4684 22.3889 64.6406 23.7048L63.7934 25.4006C61.459 23.7187 59.5391 21.4854 58.2908 18.8721H58.2593V23.7187H61.3102V25.2616H58.2593V27.8147H56.7405V25.2616H53.7797V23.7187H56.7405V18.8721H56.709C55.4291 21.5502 53.676 23.6585 51.265 25.4006L50.3862 23.8716C53.0767 22.0229 54.7126 20.3085 56.051 17.5562H50.562V15.9947H56.7405Z" fill="#333333"/>
<path d="M74.5865 18.8072H78.318V19.9841H74.5865V18.8072ZM73.1129 19.9841H68.2502C67.9844 21.6522 67.8627 22.3982 67.3715 23.7604H71.6708V23.7928C70.7649 24.4044 68.7279 25.5489 66.8081 25.8593L67.3895 27.3143C69.8276 26.7953 72.0899 25.0809 73.1129 24.1357V27.8054H74.5865V23.7697H78.8408C78.7056 25.4053 78.6335 25.4053 78.0837 25.4053H76.2405L76.5244 26.9945H78.6831C80.2018 26.9945 80.3054 25.9984 80.3911 22.4399H74.591V21.2305H79.8277V17.4867H67.8852V17.4542C68.5522 16.9955 69.0299 16.3978 69.4625 15.7723H69.8636C70.1475 16.3515 70.3819 17.0882 70.4585 17.3477L71.9321 16.75C71.8105 16.4302 71.5896 16.0318 71.4274 15.7723H73.6266V14.4703H70.1926C70.3548 14.0857 70.3999 13.9652 70.5035 13.6316L69.075 13.3861C68.8676 13.9374 68.2998 15.4804 66.7676 16.458L67.6869 17.482H67.5517V18.8118H73.1129V19.9887V19.9841ZM73.1129 22.4306H69.3363C69.4535 22.0182 69.5436 21.4668 69.5752 21.2213H73.1129V22.4306ZM76.2945 15.763C76.4748 16.1152 76.5334 16.2542 77.0246 17.3986L78.3946 16.7546C78.2189 16.3561 77.9485 15.8835 77.8764 15.763H80.7921V14.461H76.2269C76.3441 14.1552 76.4027 13.9421 76.4793 13.6363L75.1273 13.4046C74.7984 14.5074 74.1314 15.5453 73.1174 16.4488L74.2621 17.3523C74.6496 16.9863 74.9606 16.6805 75.5555 15.763H76.2991H76.2945Z" fill="#333333"/>
<path d="M97.0702 19.6644H83.4332V21.3H97.0702V19.6644Z" fill="#333333"/>
<path d="M107.201 21.5178C106.755 23.3526 105.876 24.0245 105.344 24.4554V21.5178H107.201ZM103.87 20.2621V27.8008H105.344V24.4508H105.376L106.254 25.5999C106.624 25.2941 107.593 24.4832 108.278 22.4491C108.99 23.9782 110.049 25.0624 110.477 25.5072L111.428 24.3164C110.017 23.1534 109.585 22.3611 109.242 21.5178H111.428V25.6786C111.428 26.23 111.311 26.2578 110.743 26.2578H109.481L109.72 27.8008H111.892C112.902 27.8008 112.902 26.8833 112.902 26.6239V20.2621H108.783C108.873 19.7432 108.886 19.2984 108.918 18.8118H113.469V17.4681H103.402V18.8118H107.494C107.494 19.4559 107.48 19.7895 107.417 20.2621H103.87ZM101.162 27.7683C101.892 26.7582 103.109 25.03 103.109 20.0768V16.2866H113.46V14.8641H107.778V13.5204H106.277V14.8641H101.653V20.1231C101.653 20.3826 101.64 20.6606 101.622 20.8737C100.387 21.4112 99.9541 21.5456 99.4629 21.6846L99.6702 23.399C100.324 23.1256 100.725 22.9264 101.468 22.5557C101.184 24.2979 100.977 25.0948 99.9091 26.5914L101.157 27.7683H101.162ZM99.4088 16.5924C99.8099 17.6627 100.004 18.747 100.08 19.6181L101.477 19.1594C101.27 17.8156 101.09 17.1114 100.662 16.1013L99.4133 16.5924H99.4088Z" fill="#333333"/>
<path d="M122.118 17.4774V16.18H128.157V17.4774H122.118ZM128.215 18.8535V18.1632H129.567V14.739H125.863V13.437H124.376V14.739H120.716V18.1632H122.055V18.8535H128.215ZM116.259 27.8749H117.688V15.2441H119.026C118.846 16.4071 118.522 17.3708 117.927 18.8813C118.58 19.7385 119.103 21.1286 119.103 22.1526C119.103 22.8569 119.013 23.297 118.58 23.297H117.895L118.044 24.8122H118.594C120.514 24.8122 120.514 23.0561 120.514 22.5649C120.514 22.1665 120.5 20.3455 119.355 18.8026C120.009 16.9353 120.234 16.1569 120.441 15.1468V13.8494H116.264V27.8703L116.259 27.8749ZM129.928 20.3826H120.721V21.8329H122.713C122.668 25.257 120.572 26.1605 119.473 26.4663L120.171 27.8749C122.073 27.203 124.114 25.6555 124.232 21.8329H125.538V26.0076C125.538 27.5367 125.584 27.7359 126.981 27.7359H128.333C129.657 27.7359 129.865 27.6432 130 24.5851L128.544 24.2793C128.531 24.8122 128.468 25.8547 128.423 26.0539C128.378 26.193 128.306 26.3459 128.022 26.3459H127.368C127.012 26.3459 126.981 26.0261 126.981 25.8269V21.8375H129.923V20.3872L129.928 20.3826Z" fill="#333333"/>
<path d="M98.3095 0.569913V0.0231606H97.3315V0.569913H94.7628V0.0231606H93.7848V0.569913H91.7659V1.23249H93.7848V1.59854H94.7628V1.23249H97.3315V1.59854H98.3095V1.23249H100.396V0.569913H98.3095Z" fill="#333333"/>
<path d="M96.5338 4.93465V4.61494H98.8322C99.1161 4.61494 99.346 4.37863 99.346 4.08672V1.76999H92.7393V4.09136C92.7393 4.38327 92.9691 4.61957 93.253 4.61957H95.5514V4.93928H92.4238V7.82129H93.4017V5.59723H95.5514V6.64439H94.8484V6.14861H93.8704V6.93166C93.8704 7.22357 94.1003 7.45989 94.3842 7.45989H97.692C97.976 7.45989 98.2058 7.22357 98.2058 6.93166V6.14861H97.2324V6.64439H96.5293V5.59723H98.679V6.83436H98.341L98.6835 7.78422C98.6835 7.78422 99.6569 7.92786 99.6569 7.0058V4.93465H96.5293H96.5338ZM98.3725 3.95235H96.5338V3.5168H98.3725V3.95235ZM98.3725 2.85885H96.5338V2.4233H98.3725V2.85885ZM93.7172 2.4233H95.5559V2.85885H93.7172V2.4233ZM93.7172 3.95235V3.5168H95.5559V3.95235H93.7172Z" fill="#333333"/>
<path d="M105.385 6.82046V4.92537H107.669V4.12841H105.385V2.48354H108.156V1.68658H105.385V0.0231606H104.407V1.68658H102.356L102.667 0.523575H101.721L100.959 3.39633H101.901L102.144 2.48354H104.407V4.12841H102.144V4.92537H104.407V6.82046H101.193V7.61741H108.535V6.82046H105.385Z" fill="#333333"/>
<path d="M115.619 2.59012H111.36V3.38708H115.619V2.59012Z" fill="#333333"/>
<path d="M117.318 5.11535V4.3184H109.67V5.11535H111.595L110.675 6.82046C110.63 6.89923 110.603 6.98727 110.603 7.0892C110.603 7.38111 110.833 7.61742 111.117 7.61742H115.831C116.115 7.61742 116.34 7.37648 116.34 7.08457C116.34 6.98727 116.313 6.8946 116.268 6.81583L115.655 5.676H114.646L115.259 6.81583H111.68L112.595 5.11072H117.309L117.318 5.11535Z" fill="#333333"/>
<path d="M113.465 0H112.311L109.54 3.39634H110.693L113.465 0Z" fill="#333333"/>
<path d="M114.65 0H113.501L116.268 3.39634H117.422L114.65 0Z" fill="#333333"/>
<path d="M52.0127 4.09599C52.0037 4.13769 51.9721 4.16549 51.8955 4.17476V4.97635H52.9321V5.30532H51.8955V7.44599C51.8955 7.90934 51.6927 7.90933 50.5481 7.90933C50.5345 7.80739 50.485 7.6823 50.4354 7.58963C50.6652 7.58963 50.8815 7.59426 51.0483 7.59426C51.5215 7.59426 51.553 7.59426 51.553 7.44599V5.30532H49.0158V4.99025L48.1325 5.26363V7.9047H47.799V5.36093C47.416 5.4814 47.078 5.58334 46.8076 5.66211C46.8076 5.71308 46.7715 5.75478 46.74 5.76405L46.5732 5.3563C46.8977 5.27289 47.3303 5.14779 47.8035 5.02269V3.19247H47.114C47.0374 3.64191 46.9338 4.04966 46.8166 4.35547C46.7625 4.3045 46.6498 4.22573 46.5732 4.18403C46.7895 3.60485 46.9157 2.62719 47.0059 1.69123L47.4295 1.79316C47.416 1.84413 47.3799 1.87193 47.2898 1.87193C47.2627 2.19164 47.2222 2.52988 47.1726 2.85886H47.8035V1.31592L48.2542 1.35298C48.2452 1.39468 48.2136 1.42248 48.137 1.43638V2.85886H49.0834V3.19247H48.137V4.93002L49.1285 4.64274L49.1645 4.94855L49.0744 4.97635H51.553V4.06356L52.0127 4.10063V4.09599ZM51.0483 3.60484H52.9997V3.93846H48.9167V3.60484H50.7148V2.55305H49.2862V2.22407H50.7148V1.30201L51.1745 1.32981C51.1655 1.37151 51.1339 1.40858 51.0483 1.41785V2.22407H52.585V2.55305H51.0483V3.60484ZM50.2416 7.02435C50.0884 6.68147 49.7053 6.16715 49.3448 5.80111L49.6152 5.65747C49.9712 6.00498 50.3633 6.51466 50.5165 6.85754L50.2371 7.01971L50.2416 7.02435Z" fill="#333333"/>
<path d="M56.8887 5.60649V7.32088C57.2988 7.40428 57.7495 7.44134 58.2452 7.44134C58.4345 7.44134 59.6738 7.44134 59.9487 7.43207C59.8856 7.52011 59.8225 7.68228 59.809 7.78422H58.2272C56.6589 7.78422 55.5412 7.50621 54.8923 6.1208C54.6444 6.88532 54.2749 7.51085 53.7611 7.92786C53.707 7.86299 53.5944 7.76568 53.5087 7.70082C54.2749 7.10773 54.703 6.00034 54.8788 4.6381L55.3294 4.71687C55.3159 4.76784 55.2753 4.78637 55.1987 4.79564C55.1582 5.09681 55.0996 5.38872 55.032 5.6621C55.3429 6.54245 55.8657 6.99654 56.5552 7.22821V3.88748H54.6579V3.55387H58.8716V3.88748H56.8932V5.28215H59.1014V5.61576H56.8932L56.8887 5.60649ZM54.1712 2.5345V3.6419H53.8377V2.2009H56.5417V1.29274L57.0149 1.3298C57.0059 1.3715 56.9743 1.40857 56.8887 1.41784V2.20553H59.6197V3.64653H59.2817V2.53914H54.1757L54.1712 2.5345Z" fill="#333333"/>
<path d="M66.8306 7.52009H61.2108V7.91394H60.8773V1.74217H66.6818V2.07577H61.2108V7.17258H66.8306V7.52009ZM66.5466 4.78172H64.2888C64.6584 5.66671 65.4335 6.21809 66.5241 6.4405C66.4385 6.51 66.3483 6.64901 66.3033 6.74631C65.2623 6.49147 64.5096 5.94471 64.086 5.08752C63.8787 5.70841 63.3244 6.33857 61.8913 6.79265C61.8507 6.71388 61.7606 6.5934 61.6885 6.51926C63.2433 6.05592 63.694 5.39333 63.8201 4.77708H61.6615V4.45738H63.8652C63.8742 4.38787 63.8742 4.32301 63.8742 4.25814V3.33145H62.6529C62.4727 3.65116 62.2563 3.93843 62.0355 4.14693C61.9724 4.09133 61.8553 4.0172 61.7696 3.96623C62.1797 3.59555 62.5493 2.9654 62.7566 2.30282L63.1712 2.42328C63.1577 2.46498 63.1171 2.48816 63.0405 2.48816C62.9774 2.66423 62.9098 2.84494 62.8197 3.01638H66.1546V3.33145H64.2077V4.25814C64.2077 4.32301 64.2077 4.39251 64.1987 4.45738H66.5466V4.78172Z" fill="#333333"/>
<path d="M73.8608 2.35381H68.7774V4.374C68.7774 5.4675 68.6512 6.92241 67.7904 7.92323C67.7408 7.85373 67.6147 7.72863 67.5471 7.68693C68.1464 6.99191 68.3537 6.09301 68.4213 5.25899C68.1104 5.44433 67.8084 5.62967 67.6011 5.75941C67.6011 5.80111 67.5786 5.85207 67.538 5.87524L67.3578 5.5092C67.6417 5.37483 68.0293 5.15242 68.4394 4.91148C68.4484 4.72614 68.4484 4.54544 68.4484 4.374V2.03873H70.8098V1.30201L71.283 1.33908C71.274 1.38078 71.2425 1.41785 71.1568 1.42248V2.03873H73.8563V2.35381H73.8608ZM67.9662 4.16086C67.9121 3.78092 67.7093 3.1971 67.4885 2.74766L67.7679 2.64571C68.0022 3.09053 68.205 3.66508 68.2591 4.03113L67.9662 4.16086ZM72.1123 3.42414C72.27 3.66508 72.4818 3.90139 72.7161 4.11916C72.9234 3.93846 73.1758 3.69752 73.32 3.53535L73.6265 3.74385C73.6039 3.78092 73.5589 3.79481 73.5093 3.78091C73.3561 3.92455 73.1127 4.12843 72.9054 4.28596C73.2164 4.53617 73.5634 4.73541 73.8969 4.86514C73.8293 4.93001 73.7391 5.04585 73.6806 5.12925C73.4372 5.02268 73.1938 4.87905 72.9595 4.70298V6.31078H71.5354V7.52476C71.5354 7.71936 71.4948 7.81203 71.3281 7.86763C71.1704 7.9186 70.891 7.92323 70.4133 7.92323C70.3997 7.8213 70.3457 7.7101 70.2961 7.61743C70.4989 7.62669 70.6701 7.62669 70.8098 7.62669H71.0893C71.1884 7.62669 71.2064 7.59889 71.2064 7.52012V6.31543H69.8094V4.72151C69.6021 4.87905 69.3632 5.02269 69.1154 5.14779C69.0658 5.06902 68.9711 4.96709 68.8855 4.92075C69.2551 4.74005 69.575 4.5269 69.8589 4.29986C69.6832 4.11916 69.4443 3.90602 69.228 3.75775L69.4353 3.58631C69.6426 3.73458 69.8995 3.93382 70.0753 4.10526C70.2961 3.89212 70.4854 3.66044 70.6431 3.43341H69.1379V3.13224H70.8324C70.9631 2.89593 71.0622 2.65498 71.1253 2.42331L71.5624 2.47428C71.5489 2.52988 71.5129 2.55768 71.4227 2.55768C71.3596 2.74302 71.283 2.93763 71.1794 3.1276H73.7617V3.42877H72.1168L72.1123 3.42414ZM70.4538 6.6444C70.4403 6.69537 70.3862 6.70926 70.3276 6.69999C70.0437 7.09384 69.5705 7.50622 69.1604 7.7657C69.1063 7.70083 69.0027 7.60353 68.9261 7.55256C69.3227 7.31625 69.7868 6.92241 70.0662 6.50076L70.4538 6.6444ZM72.6485 5.20339V4.65201H70.1203V5.20339H72.6485ZM72.6485 6.03278V5.4675H70.1203V6.03278H72.6485ZM71.0081 3.42877C70.8053 3.75775 70.5439 4.07746 70.215 4.37863H72.5629C72.252 4.09136 71.9816 3.76238 71.7697 3.42877H71.0036H71.0081ZM73.4192 7.8074C73.1893 7.47843 72.6981 6.9919 72.2745 6.65829L72.5178 6.51466C72.9325 6.83437 73.4327 7.31625 73.676 7.62669L73.4192 7.80276V7.8074Z" fill="#333333"/>
<path d="M74.5323 3.37317C75.0326 3.53071 75.65 3.80871 75.9789 4.03575L75.7987 4.34156C75.4877 4.11452 74.8703 3.81335 74.3611 3.64191L74.5368 3.37317H74.5323ZM74.6315 7.58499C75.0055 7.01507 75.5418 6.02814 75.9249 5.20802C76.1006 5.35166 76.1412 5.38409 76.1772 5.43042C75.8212 6.19958 75.33 7.14481 74.9875 7.69156C75.001 7.71936 75.01 7.74716 75.01 7.77959C75.01 7.81203 75.001 7.83057 74.9875 7.8491L74.6315 7.58499ZM74.9109 1.35761C75.4111 1.55222 76.015 1.86266 76.326 2.12214L76.1322 2.41404C75.8257 2.1592 75.2218 1.82096 74.7216 1.62636L74.9109 1.35297V1.35761ZM80.7875 4.43423V4.76784H78.0565L78.2773 4.84661C78.2548 4.88831 78.2097 4.91611 78.1376 4.91611C77.8943 5.5648 77.5202 6.47295 77.1867 7.13554C77.9709 7.09384 78.9218 7.04287 79.8546 6.97801C79.5887 6.57953 79.2778 6.16251 78.9713 5.81963L79.2552 5.6621C79.8096 6.29225 80.427 7.14944 80.6838 7.70546L80.3774 7.8908C80.2963 7.71473 80.1836 7.50622 80.0439 7.27455C78.7325 7.38112 77.3264 7.47378 76.4657 7.52475C76.4566 7.58035 76.4161 7.61279 76.3665 7.62669L76.2133 7.18187L76.8127 7.15408C77.1552 6.49612 77.5563 5.4953 77.7996 4.76321H76.2043V4.42959H78.2728V2.89592H76.5423V2.55305H78.2728V1.29737L78.7595 1.33908C78.7505 1.40395 78.6964 1.44565 78.6153 1.45955V2.55305H80.3729V2.89592H78.6153V4.42959H80.783L80.7875 4.43423Z" fill="#333333"/>
<path d="M84.7894 1.59392C84.7804 1.64489 84.7353 1.67268 84.6497 1.68658L84.6407 1.79315C84.6947 2.64108 85.0733 6.27834 87.8223 7.54791C87.7322 7.61741 87.6286 7.74252 87.5655 7.83983C85.551 6.87607 84.8029 4.67054 84.51 3.16466H84.5055C84.2621 4.65663 83.5861 6.76486 81.5176 7.82593C81.4545 7.74716 81.3508 7.64059 81.2517 7.57572C84.1765 6.12081 84.2396 2.52524 84.2846 1.55685L84.7849 1.59392H84.7894Z" fill="#333333"/>
</svg>
