<svg width="263" height="80" viewBox="0 0 263 80" fill="none" xmlns="http://www.w3.org/2000/svg">
<g clip-path="url(#clip0_2432_35376)">
<path d="M252.127 0H244.665C244.378 0 244.145 0.233591 244.145 0.521739V8C244.145 8.28815 244.378 8.52174 244.665 8.52174H252.127C252.414 8.52174 252.647 8.28815 252.647 8V0.521739C252.647 0.233591 252.414 0 252.127 0Z" fill="#ED7414"/>
<path d="M241.773 10.377H234.312C234.024 10.377 233.791 10.6105 233.791 10.8987V18.377C233.791 18.6651 234.024 18.8987 234.312 18.8987H241.773C242.06 18.8987 242.294 18.6651 242.294 18.377V10.8987C242.294 10.6105 242.06 10.377 241.773 10.377Z" fill="#ED7414"/>
<path d="M262.48 10.377H255.019C254.731 10.377 254.498 10.6105 254.498 10.8987V18.377C254.498 18.6651 254.731 18.8987 255.019 18.8987H262.48C262.768 18.8987 263.001 18.6651 263.001 18.377V10.8987C263.001 10.6105 262.768 10.377 262.48 10.377Z" fill="#ED7414"/>
<path d="M252.127 20.7534H244.665C244.378 20.7534 244.145 20.987 244.145 21.2752V28.7534C244.145 29.0416 244.378 29.2752 244.665 29.2752H252.127C252.414 29.2752 252.647 29.0416 252.647 28.7534V21.2752C252.647 20.987 252.414 20.7534 252.127 20.7534Z" fill="#ED7414"/>
<path d="M67.8326 49.1885V44.8987C65.2732 47.9276 61.7449 49.9277 56.6261 49.9277C49.6418 49.9277 43.8867 45.6378 43.8867 37.7972V37.6523C43.8867 29.0001 50.0467 25.0001 58.8384 25.0001C62.5691 25.0001 65.2732 25.6668 67.9049 26.6233V25.9566C67.9049 21.29 65.2009 18.7103 59.9519 18.7103C55.932 18.7103 53.0978 19.5219 49.7141 20.8552L47.0824 12.2755C51.1601 10.3479 55.18 9.10156 61.4702 9.10156C72.9515 9.10156 78.0125 15.4639 78.0125 26.1885V49.1885H67.8326ZM68.0351 33.2175C66.242 32.3334 63.885 31.7392 61.3256 31.7392C56.8285 31.7392 54.0522 33.6668 54.0522 37.2175V37.3624C54.0522 40.3914 56.4091 42.174 59.7928 42.174C64.7092 42.174 68.0351 39.29 68.0351 35.2175V33.2175Z" fill="#ED7414"/>
<path d="M214.862 50.1448C212.028 58.2028 208.977 61.2463 202.687 61.2463C198.884 61.2463 196.05 60.2028 193.346 58.5071L196.874 50.3767C198.262 51.2608 199.983 51.9274 201.371 51.9274C203.164 51.9274 204.133 51.3332 205.044 49.3332L190.512 9.53613H201.66L210.105 36.5361L218.203 9.53613H229.135L214.877 50.1448H214.862Z" fill="#ED7414"/>
<path d="M205.073 49.3625L210.09 36.5364L203.641 16.0581L193.707 18.319L205.073 49.3625Z" fill="url(#paint0_linear_2432_35376)"/>
<path d="M28.9925 49.5652H19.579L0 0H11.7705L24.4375 34.6522L37.0901 0H48.5714L28.9925 49.5652Z" fill="#ED7414"/>
<path d="M19.5794 49.5651L24.4235 34.652L18.2057 17.623L8.05469 20.3912L19.5794 49.5651Z" fill="url(#paint1_linear_2432_35376)"/>
<path d="M107.005 49.1883V27.0724C107.005 21.7536 104.648 19.0144 100.643 19.0144C96.6372 19.0144 94.0633 21.7536 94.0633 27.0724V49.1883H83.5508V9.55065H94.0633V15.1738C96.4781 11.8405 99.6015 8.81152 104.923 8.81152C112.876 8.81152 117.518 14.4347 117.518 23.5362V49.2028H107.005V49.1883Z" fill="#ED7414"/>
<path d="M94.034 15.1593L94.0774 26.0868C94.0774 26.0868 94.034 19.9564 99.4565 19.0868C100.541 18.9129 101.221 19.0289 101.221 19.0289C101.221 19.0289 106.629 8.85496 104.908 8.79699C98.025 8.56511 94.0195 15.1593 94.0195 15.1593H94.034Z" fill="url(#paint2_linear_2432_35376)"/>
<path d="M51.0009 77.2751C50.2635 78.7389 49.9454 79.1012 49.4393 79.1012C48.9621 79.1012 48.2246 78.565 48.2246 77.8693C48.2246 77.449 48.4126 77.1302 48.6584 76.7244C50.8563 72.9128 51.3769 69.0287 51.7095 66.0142C51.7963 65.3041 51.8541 64.6664 52.7651 64.6664C53.0543 64.6664 53.9508 64.6954 53.9508 65.7389C53.9508 67.2751 52.982 73.3331 51.0154 77.2751H51.0009ZM59.4167 66.507C61.3977 70.8403 62.6413 76.42 62.6413 77.7244C62.6413 78.449 62.222 78.9708 61.4556 78.9708C60.5591 78.9708 60.4578 78.42 60.2699 77.3911C59.865 74.9853 59.0408 70.6809 57.1899 66.9418C56.7561 66.0722 56.7127 65.9273 56.7127 65.7389C56.7127 65.0287 57.3778 64.6374 57.8984 64.6374C58.2744 64.6374 58.607 64.6954 59.4167 66.4925V66.507ZM60.4578 64.7389C60.5591 64.9273 60.9639 65.8548 60.9639 66.2027C60.9639 66.6519 60.5735 66.7534 60.3855 66.7534C60.0963 66.7534 60.0674 66.7244 59.5902 65.565C59.5469 65.449 59.3155 64.9418 59.2432 64.7534C59.1998 64.6519 59.1854 64.536 59.1854 64.4345C59.1854 64.1012 59.5613 63.9273 59.7348 63.9273C60.053 63.9273 60.1686 64.0867 60.4723 64.7389H60.4578ZM62.0774 63.8693C62.1208 63.9708 62.6558 64.9853 62.6558 65.4056C62.6558 65.8258 62.2943 65.9563 62.0774 65.9563C61.7593 65.9563 61.6725 65.8258 61.2098 64.7244C61.1664 64.594 60.935 64.1447 60.8627 63.9563C60.8193 63.8548 60.8193 63.7679 60.8193 63.6954C60.8193 63.3186 61.2387 63.1592 61.3688 63.1592C61.6436 63.1592 61.7737 63.2461 62.0918 63.8693H62.0774Z" fill="#F87700" stroke="#F87700" stroke-width="0.3" stroke-miterlimit="10"/>
<path d="M69.0613 64.9561C69.3649 64.9561 69.6541 65.0865 70.8254 65.7821C74.3826 67.9416 74.3826 68.2604 74.3826 68.7966C74.3826 69.3329 73.862 70.101 73.3125 70.101C72.8932 70.101 72.5461 69.8401 71.6062 69.1155C70.782 68.4778 69.7698 67.8691 68.7865 67.2894C68.425 67.072 67.9912 66.8111 67.9912 66.2169C67.9912 65.5503 68.4973 65.0865 68.8588 64.9706C68.96 64.9561 69.0323 64.9561 69.0613 64.9561ZM81.4536 67.6807C81.4536 68.5792 80.0509 72.2894 78.4459 74.3619C76.3781 77.0575 73.9921 78.0285 72.0834 78.5937C71.129 78.8836 69.9578 79.13 69.4806 79.13C68.4684 79.13 68.3672 78.1445 68.3672 77.7821C68.3672 76.8981 68.8154 76.7242 69.5674 76.6082C74.0789 76.0285 77.3035 74.101 79.2267 67.8111C79.5159 66.8836 79.6027 66.5648 80.2244 66.5648C80.3401 66.5648 80.4847 66.5792 80.6293 66.6227C80.9764 66.7242 81.4536 66.9995 81.4536 67.6807Z" fill="#F87700" stroke="#F87700" stroke-width="0.3" stroke-miterlimit="10"/>
<path d="M91.7783 75.3908C91.7783 76.9416 92.3856 76.9705 94.7715 76.9705C95.0896 76.9705 96.5356 76.9705 97.2731 76.9416C97.5189 76.9271 98.5745 76.8401 98.8059 76.8401C99.0951 76.8401 99.847 76.8401 99.847 77.9126C99.847 78.985 99.0517 79.101 98.7046 79.13C97.5334 79.2169 95.6102 79.2314 94.5546 79.2314C91.4746 79.2314 89.6237 79.101 89.6237 75.6517V70.2314L87.3968 70.4488C87.1076 70.4778 86.2256 70.5213 86.2256 69.3039C86.2256 68.3184 86.7895 68.2024 87.2233 68.1734L89.6092 67.9561V65.0575C89.6092 64.6517 89.6671 63.9561 90.6793 63.9561C91.4746 63.9561 91.7638 64.3474 91.7638 65.0575V67.7821L98.1551 67.2749C99.1384 67.2024 99.8904 67.5792 99.8904 68.7676C99.8904 69.8401 99.2541 71.5647 98.0684 72.8981C97.4321 73.6082 96.0874 74.7966 95.2921 74.7966C94.5546 74.7966 94.2509 73.9995 94.2509 73.6517C94.2509 73.1879 94.4534 73.043 95.2631 72.5068C95.5813 72.2749 96.8393 71.101 97.1574 70.4633C97.2586 70.2749 97.3743 69.9705 97.3743 69.7966C97.3743 69.5068 97.1285 69.5358 96.8248 69.5647L91.7349 70.0575V75.4198L91.7783 75.3908Z" fill="#F87700" stroke="#F87700" stroke-width="0.3" stroke-miterlimit="10"/>
<path d="M114.032 78.6085C114.032 79.0723 113.946 79.7824 112.919 79.7824C112.138 79.7824 111.791 79.4056 111.791 78.6085V71.0288C109.651 72.2027 106.889 73.2752 106.108 73.2752C105.226 73.2752 105.053 72.3332 105.053 71.9419C105.053 71.2027 105.472 71.0578 105.964 70.9129C110.172 69.6665 113.7 67.3332 115.074 66.0288L116.722 64.4491C117.156 64.0433 117.344 63.9854 117.546 63.9854C118.125 63.9854 118.746 64.5361 118.746 65.2607C118.746 65.6375 118.631 65.8984 118.255 66.2897C117.344 67.2172 115.985 68.4201 114.047 69.6665V78.594L114.032 78.6085Z" fill="#F87700" stroke="#F87700" stroke-width="0.3" stroke-miterlimit="10"/>
<path d="M134.276 68.1156C134.016 68.1156 133.206 68.1156 133.206 66.9707C133.206 65.8257 134.016 65.7967 134.276 65.7967H143.357C143.704 65.7967 144.311 65.8837 144.572 65.9707C144.47 65.7967 144.326 65.4924 144.326 64.9996C144.326 63.9272 145.107 63.0576 146.061 63.0576C147.015 63.0576 147.811 63.9272 147.811 64.9996C147.811 66.0721 147.03 66.9272 146.061 66.9272C145.815 66.9272 145.671 66.8982 145.584 66.8547C145.685 67.0431 145.801 67.362 145.801 68.0431C145.801 69.1011 145.208 72.6808 143.01 75.4924C140.537 78.6808 136.619 79.5649 135.982 79.5649C135.071 79.5649 134.912 78.5504 134.912 78.2605C134.912 77.4924 135.476 77.362 136.127 77.1591C139.308 76.2605 142.056 74.3765 143.126 70.3909C143.371 69.5214 143.458 68.7967 143.458 68.6083C143.458 68.1301 143.169 68.1156 142.952 68.1156H134.276ZM145.251 64.9996C145.251 65.4924 145.613 65.8982 146.061 65.8982C146.509 65.8982 146.885 65.5069 146.885 64.9996C146.885 64.4924 146.524 64.0721 146.061 64.0721C145.598 64.0721 145.251 64.4924 145.251 64.9996Z" fill="#F87700" stroke="#F87700" stroke-width="0.3" stroke-miterlimit="10"/>
<path d="M151.643 71.3184C151.426 71.3184 150.631 71.3184 150.631 70.2315C150.631 69.217 151.282 69.13 151.643 69.13H162.213C162.691 69.13 163.775 69.188 163.775 70.6518C163.775 71.13 163.443 73.9996 161.563 76.188C159.9 78.13 157.948 78.7967 156.747 79.13C155.518 79.4779 154.492 79.6228 154.101 79.6228C153.74 79.6228 153.494 79.5503 153.32 79.3764C153.104 79.188 152.959 78.8112 152.959 78.4199C152.959 77.5503 153.552 77.4634 154.174 77.3619C155.938 77.0721 158.801 76.6373 160.464 74.159C161.086 73.217 161.447 72.0141 161.447 71.6953C161.447 71.3619 161.259 71.3039 160.941 71.3039H151.658L151.643 71.3184ZM162.011 64.8257C162.228 64.8257 162.994 64.8257 162.994 65.9271C162.994 67.0286 162.257 67.0286 162.011 67.0286H152.829C152.612 67.0286 151.846 67.0286 151.846 65.9561C151.846 64.9416 152.453 64.8402 152.829 64.8402H162.011V64.8257Z" fill="#F87700" stroke="#F87700" stroke-width="0.3" stroke-miterlimit="10"/>
<path d="M169.01 67.0433C168.677 67.0433 167.954 66.9563 167.954 65.9273C167.954 65.1012 168.403 64.7969 169.01 64.7969H176.934C177.672 64.7969 178.669 64.9418 178.669 66.3186C178.669 67.5505 177.455 70.3911 176.066 72.4925C176.963 73.2317 178.149 74.2461 180.057 76.2172C180.939 77.1157 181.084 77.4201 181.084 77.8838C181.084 78.623 180.477 79.2172 179.855 79.2172C179.349 79.2172 179.132 78.9563 178.583 78.2461C177.324 76.6519 175.531 74.8404 174.837 74.2317C172.582 77.0432 169.415 79.3331 168.475 79.3331C167.94 79.3331 167.448 78.7099 167.448 78.0288C167.448 77.478 167.607 77.3911 168.735 76.7389C173.681 73.8693 176.124 68.1157 176.124 67.3621C176.124 67.1012 175.951 67.0722 175.676 67.0722H169.01V67.0433Z" fill="#F87700" stroke="#F87700" stroke-width="0.3" stroke-miterlimit="10"/>
<path d="M136.966 49.8551C131.789 49.8551 125.976 48.0145 121.074 43.8696L125.571 36.4928C129.577 39.5942 133.799 41.2174 137.241 41.2174C140.277 41.2174 141.665 40.0435 141.665 38.2609V38.116C141.665 35.6812 138.079 34.8696 134.002 33.5363C128.825 31.9131 122.954 29.3334 122.954 21.6522V21.5073C122.954 13.4638 129.027 8.95654 136.489 8.95654C141.188 8.95654 146.307 10.6522 150.312 13.5363L146.307 21.2899C142.649 19 138.99 17.5942 136.286 17.5942C133.727 17.5942 132.411 18.7681 132.411 20.3189V20.4638C132.411 22.6812 135.939 23.7102 139.945 25.1884C145.121 27.029 151.137 29.6957 151.137 36.9276V37.0725C151.137 45.8551 144.991 49.8406 136.966 49.8406V49.8551Z" fill="#ED7414"/>
<path d="M178.597 49.0433V44.7679C176.037 47.7969 172.524 49.7824 167.405 49.7824C160.421 49.7824 154.694 45.4926 154.694 37.6665V37.5216C154.694 28.8839 160.84 24.8984 169.617 24.8984C173.348 24.8984 176.037 25.565 178.669 26.5216V25.8549C178.669 21.2027 175.98 18.623 170.731 18.623C166.725 18.623 163.891 19.4346 160.507 20.7679L157.876 12.2027C161.953 10.2897 165.959 9.02881 172.249 9.02881C183.716 9.02881 188.762 15.3766 188.762 26.0868V49.0433H178.611H178.597ZM178.799 33.1013C177.006 32.2172 174.649 31.623 172.104 31.623C167.607 31.623 164.845 33.5361 164.845 37.0868V37.2317C164.845 40.2607 167.188 42.0288 170.586 42.0288C175.488 42.0288 178.814 39.1447 178.814 35.0868V33.0868L178.799 33.1013Z" fill="#ED7414"/>
</g>
<defs>
<linearGradient id="paint0_linear_2432_35376" x1="198.464" y1="16.5798" x2="209.788" y2="47.6359" gradientUnits="userSpaceOnUse">
<stop stop-color="#ED7414"/>
<stop offset="1" stop-color="#CB4800"/>
</linearGradient>
<linearGradient id="paint1_linear_2432_35376" x1="13" y1="18.5796" x2="23.7432" y2="48.0423" gradientUnits="userSpaceOnUse">
<stop stop-color="#ED7414"/>
<stop offset="1" stop-color="#CB4800"/>
</linearGradient>
<linearGradient id="paint2_linear_2432_35376" x1="103.077" y1="7.68488" x2="92.8396" y2="25.3691" gradientUnits="userSpaceOnUse">
<stop stop-color="#ED7414"/>
<stop offset="0.41" stop-color="#EC7313"/>
<stop offset="1" stop-color="#CB4800"/>
</linearGradient>
<clipPath id="clip0_2432_35376">
<rect width="263" height="80" fill="white"/>
</clipPath>
</defs>
</svg>
