<svg width="86" height="29" viewBox="0 0 86 29" fill="none" xmlns="http://www.w3.org/2000/svg">
<path d="M15.987 11.3415C14.9163 11.3415 14.0499 12.2399 14.0499 13.3474V16.3526L15.9963 18.3537L15.9893 11.3415H15.987Z" fill="#C42222"/>
<path d="M8.64724 17.3688L9.78302 16.1893L2.17395 8.31944C1.78838 8.70621 1.44231 9.13621 1.145 9.60226L8.64724 17.3664V17.3688Z" fill="#C42222"/>
<path d="M6.47575 19.3699L7.61153 18.1952L0.50648 10.849C0.274212 11.4304 0.109302 12.0502 0.0233627 12.694L6.47342 19.3699H6.47575Z" fill="#C42222"/>
<path d="M16.333 26.7641C15.4574 27.6601 14.2542 28.2126 12.9257 28.2126C11.5971 28.2126 10.3893 27.6577 9.51367 26.7593L2.08344 19.0672C0.943006 17.8877 0.181168 16.3166 0 14.5677L10.6564 25.5918C11.2464 26.2019 12.0593 26.5791 12.9605 26.5791C13.8617 26.5791 14.6746 26.2019 15.2646 25.5918L22.7064 17.8925C23.7516 16.8307 24.3997 15.3533 24.3997 13.7173C24.3997 10.4863 21.868 7.86781 18.744 7.86781C17.29 7.86781 15.9614 8.43475 14.9603 9.36923L12.9791 11.4064L11.0025 9.37163C9.99911 8.43715 8.67286 7.86781 7.21655 7.86781C6.7915 7.86781 6.38038 7.91586 5.98088 8.00714L14.0382 16.3406H11.769L3.19135 7.47144C4.3434 6.67628 5.72539 6.21265 7.21422 6.21265C9.56476 6.21265 11.6528 7.36814 12.9791 9.15783C14.3053 7.36574 16.3934 6.21265 18.744 6.21265C22.7506 6.21265 26 9.57342 26 13.7173C26 15.8097 25.1708 17.7027 23.8353 19.0648L16.333 26.7641Z" fill="#C42222"/>
<path d="M39.7291 2.89473C39.7221 2.93751 39.6867 2.96959 39.6055 2.97672V3.80377H40.6934V4.14244H39.6055V6.35623C39.6055 6.83749 39.3936 6.83748 38.1856 6.83748C38.1715 6.7341 38.1185 6.6022 38.069 6.50595C38.3092 6.50595 38.5353 6.51308 38.7119 6.51308C39.2099 6.51308 39.2452 6.51308 39.2452 6.35979V4.146H36.5749V3.8216L35.646 4.10322V6.83392H35.2963V4.2066C34.8936 4.33137 34.5369 4.43476 34.2508 4.51675C34.2508 4.56666 34.2155 4.613 34.1766 4.62013L34 4.19947C34.3426 4.11035 34.7983 3.98558 35.2928 3.85368V1.96429H34.5687C34.4874 2.43129 34.3779 2.84839 34.2543 3.16923C34.1943 3.11575 34.0777 3.03732 34 2.99098C34.2261 2.39208 34.3567 1.38322 34.4521 0.41357L34.8972 0.516954C34.883 0.570428 34.8477 0.598945 34.7523 0.598945C34.7241 0.930479 34.6782 1.27627 34.6287 1.6185H35.2928V0.0249993L35.7696 0.0606503C35.7625 0.103429 35.7272 0.135513 35.646 0.149772V1.6185H36.642V1.96429H35.646V3.75743L36.6915 3.46154L36.7268 3.77882L36.6314 3.80734H39.2417V2.86265L39.7256 2.89829L39.7291 2.89473ZM38.7119 2.38495H40.7676V2.73074H36.469V2.38495H38.3622V1.30123H36.8575V0.962564H38.3622V0.0107422L38.8461 0.0392619C38.839 0.0820404 38.8037 0.121254 38.7154 0.128384V0.962564H40.3296V1.30123H38.7154V2.38495H38.7119ZM37.8642 5.92131C37.7017 5.56839 37.3025 5.03722 36.9211 4.65934L37.2072 4.51318C37.5816 4.87323 37.9984 5.39727 38.1573 5.75376L37.8642 5.92488V5.92131Z" fill="#333333"/>
<path d="M44.8651 4.4561V6.22784C45.296 6.31697 45.7728 6.35261 46.2921 6.35261C46.4899 6.35261 47.7968 6.35261 48.0829 6.34548C48.0157 6.4346 47.9522 6.60572 47.938 6.7091H46.2709C44.6178 6.7091 43.4416 6.42035 42.7599 4.99083C42.495 5.77867 42.11 6.43104 41.5696 6.85882C41.5096 6.79109 41.393 6.68771 41.3047 6.62355C42.11 6.01039 42.5621 4.86606 42.7458 3.45793L43.2226 3.53992C43.2085 3.58983 43.1626 3.61478 43.0849 3.62191C43.0425 3.93206 42.9825 4.23508 42.9083 4.5167C43.2368 5.42575 43.7842 5.89631 44.5083 6.13159V2.67722H42.5127V2.33143H46.9526V2.67722H44.8686V4.11743H47.1928V4.46322H44.8686L44.8651 4.4561ZM42.0076 1.28335V2.42768H41.6579V0.93756H44.5013V0L44.9993 0.0356455C44.9922 0.0784241 44.9569 0.117638 44.8686 0.124768V0.93756H47.7438V2.42768H47.387V1.28335H42.0111H42.0076Z" fill="#333333"/>
<path d="M55.3305 6.08163V6.43455H49.4141V6.84095H49.0645V0.463379H55.1786V0.809173H49.4177V6.07806H55.334L55.3305 6.08163ZM55.0302 3.27607V3.6076H52.6531C53.0416 4.52378 53.8611 5.0906 55.009 5.31875C54.9207 5.39361 54.8254 5.53264 54.7759 5.63602C53.6774 5.36866 52.8898 4.80897 52.4447 3.92488C52.2257 4.56656 51.6394 5.21536 50.1347 5.68949C50.0923 5.6075 49.9969 5.48273 49.9228 5.40787C51.5617 4.92661 52.035 4.24215 52.1692 3.6076H49.8945V3.27607H52.2116C52.2187 3.20121 52.2187 3.13704 52.2187 3.06931V2.11036H50.933C50.7422 2.44189 50.5162 2.73778 50.283 2.95167C50.2159 2.89107 50.0923 2.81977 50.004 2.76629C50.4349 2.38129 50.8235 1.73248 51.0425 1.04802L51.4804 1.17279C51.4663 1.21557 51.4204 1.24053 51.3427 1.24053C51.2756 1.4259 51.2049 1.61127 51.1096 1.78595H54.6205V2.11036H52.5719V3.06931C52.5719 3.13704 52.5719 3.20834 52.5648 3.27607H55.0373H55.0302Z" fill="#333333"/>
<path d="M62.7338 1.09446H57.3827V3.18348C57.3827 4.31355 57.252 5.81793 56.3442 6.85175C56.2948 6.77688 56.1605 6.65211 56.0899 6.60933C56.7186 5.89279 56.9376 4.96236 57.0118 4.09966C56.6833 4.29216 56.3689 4.48467 56.1499 4.61657C56.1499 4.65934 56.1287 4.71282 56.0828 4.73421L55.8921 4.35633C56.1923 4.2173 56.602 3.98558 57.033 3.73604C57.04 3.54354 57.04 3.35816 57.04 3.18348V0.770058H59.5267V0.0107422L60.0247 0.0463877C60.0176 0.0891663 59.9823 0.12838 59.894 0.13551V0.770058H62.7374V1.09446H62.7338ZM56.5243 2.96246C56.4643 2.57033 56.2524 1.96429 56.0192 1.50086L56.3124 1.39748C56.5597 1.85378 56.7716 2.45269 56.8316 2.83056L56.5243 2.96246ZM60.8901 2.20314C61.0596 2.45268 61.2786 2.69866 61.5258 2.91969C61.7448 2.73431 62.0098 2.48477 62.1616 2.31365L62.4831 2.52755C62.4619 2.56319 62.4089 2.57746 62.3594 2.5632C62.197 2.70936 61.9426 2.92325 61.7236 3.08723C62.0521 3.3439 62.4195 3.55067 62.7692 3.68613C62.695 3.75387 62.5996 3.87151 62.5431 3.96063C62.2888 3.85012 62.0309 3.70396 61.7837 3.51858V5.17982H60.2861V6.43465C60.2861 6.63428 60.2437 6.73054 60.0671 6.78758C59.8975 6.84105 59.6079 6.84818 59.1028 6.84818C59.0887 6.7448 59.0286 6.62716 58.9792 6.5309C59.1911 6.53803 59.3748 6.53804 59.5196 6.53804H59.8128C59.9152 6.53804 59.9364 6.50952 59.9364 6.42753V5.17982H58.467V3.53284C58.248 3.69682 58.0008 3.84299 57.7359 3.97489C57.6864 3.89289 57.584 3.78951 57.4957 3.7396C57.8842 3.55423 58.2198 3.33321 58.52 3.09793C58.3363 2.91256 58.082 2.69153 57.856 2.53824L58.075 2.36C58.2939 2.51329 58.5659 2.72005 58.7461 2.89829C58.9792 2.67727 59.177 2.44199 59.3465 2.20314H57.7606V1.893H59.5443C59.6821 1.65059 59.7845 1.39748 59.8516 1.1622L60.3108 1.21567C60.2967 1.27627 60.2613 1.30479 60.166 1.30479C60.0989 1.49729 60.0212 1.69693 59.9117 1.89656H62.6314V2.20671H60.8971L60.8901 2.20314ZM59.1417 5.53274C59.1275 5.58265 59.0675 5.60047 59.011 5.59335C58.7107 5.99974 58.2127 6.42752 57.7818 6.69132C57.7217 6.62359 57.6122 6.52021 57.5345 6.4703C57.9513 6.22789 58.4423 5.8215 58.7355 5.38658L59.1452 5.53274H59.1417ZM61.4517 4.04262V3.47581H58.7884V4.04262H61.4517ZM61.4517 4.89819V4.31712H58.7884V4.89819H61.4517ZM59.7245 2.20314C59.5125 2.5418 59.2335 2.87334 58.8909 3.18348H61.3634C61.0349 2.8876 60.7488 2.54893 60.5298 2.20314H59.7245ZM62.2605 6.72697C62.0203 6.38831 61.5011 5.88566 61.0525 5.53987L61.3069 5.39371C61.7448 5.72524 62.2711 6.22076 62.529 6.54517L62.257 6.73054L62.2605 6.72697Z" fill="#333333"/>
<path d="M63.437 2.14967C63.9633 2.31365 64.6132 2.59884 64.9593 2.83413L64.7686 3.1514C64.4401 2.91612 63.7902 2.60597 63.2568 2.42773L63.4405 2.1461L63.437 2.14967ZM63.5394 6.50238C63.935 5.91061 64.4966 4.89462 64.8993 4.04618C65.083 4.19234 65.1253 4.23156 65.1642 4.27433C64.7898 5.07287 64.2706 6.04608 63.9138 6.61289C63.9279 6.64141 63.935 6.6735 63.935 6.70202C63.935 6.73054 63.9279 6.75193 63.9138 6.77688L63.5394 6.50238ZM63.8326 0.0677816C64.3589 0.267415 64.9946 0.591814 65.3231 0.85918L65.1183 1.1622C64.7968 0.894831 64.1611 0.549038 63.6348 0.349405L63.8326 0.0677816ZM70.0173 3.24765V3.59345H67.1422L67.3753 3.67544C67.3541 3.71822 67.3011 3.7503 67.2305 3.7503C66.9762 4.42049 66.5806 5.35806 66.2274 6.04608C67.0539 6.0033 68.057 5.94983 69.0354 5.8821C68.7564 5.46857 68.4279 5.04079 68.1065 4.68786L68.4067 4.52388C68.993 5.17269 69.6429 6.06034 69.9114 6.63429L69.59 6.82679C69.5017 6.64142 69.3851 6.42752 69.2403 6.19224C67.8592 6.30275 66.3828 6.399 65.475 6.44891C65.468 6.50952 65.4256 6.53803 65.3726 6.55229L65.2101 6.09599L65.8388 6.06747C66.1956 5.39014 66.6194 4.35633 66.8773 3.59345H65.196V3.24765H67.3753V1.66128H65.5563V1.30836H67.3753V0.0107422L67.8875 0.053519C67.8804 0.121252 67.8204 0.164032 67.7356 0.178292V1.30836H69.5864V1.66128H67.7356V3.24765H70.0173Z" fill="#333333"/>
<path d="M74.2414 0.310159C74.2344 0.363632 74.1814 0.392153 74.0966 0.406412L74.0895 0.516922C74.1496 1.39388 74.5417 5.15127 77.438 6.46671C77.3426 6.54157 77.2331 6.66634 77.166 6.76972C75.0468 5.77155 74.2556 3.49359 73.9483 1.93574H73.9412C73.6833 3.47934 72.9769 5.65391 70.7976 6.75546C70.7305 6.67347 70.621 6.56296 70.5186 6.49879C73.5986 4.99441 73.6622 1.27981 73.7151 0.278076L74.2414 0.313722V0.310159Z" fill="#333333"/>
<path d="M47.0795 13.9782V12.9016H45.1298V13.9782H39.987V12.9016H38.0372V13.9782H34V15.2758H38.0372V15.9924H39.987V15.2758H45.1298V15.9924H47.0795V15.2758H51.251V13.9782H47.0795Z" fill="#333333"/>
<path d="M43.5333 22.5482V21.9243H48.1321C48.6973 21.9243 49.1635 21.4573 49.1635 20.8834V20.6267V16.3311H35.9498V20.887C35.9498 21.4609 36.4125 21.9279 36.9776 21.9279H37.8995H41.58V22.5518H35.3281V28.2128H37.2814V23.8494H41.58V25.9099H40.1707V24.9367H38.2174V26.4731C38.2174 27.0471 38.6801 27.5141 39.2488 27.5141H45.861C46.4296 27.5141 46.8888 27.0506 46.8888 26.4731V24.9367H44.9391V25.9099H43.5297V23.8494H47.8319V26.2771H47.1573L47.839 28.1415C47.839 28.1415 49.7852 28.4267 49.7852 26.6122V22.5482H43.5333ZM47.2138 20.6232H43.5333V19.7712H47.2138V20.6232ZM47.2138 18.4735H43.5333V17.6215H47.2138V18.4735ZM37.9031 17.6215H41.5835V18.4735H37.9031V17.6215ZM37.9031 20.6232V19.7712H41.5835V20.6232H37.9031Z" fill="#333333"/>
<path d="M61.229 26.2414V22.5268H65.796V20.9618H61.229V17.7356H66.7709V16.1706H61.229V12.9016H59.2792V16.1706H55.1784L55.7965 13.8891H53.9069L52.3774 19.5252H54.2671L54.751 17.7356H59.2792V20.9618H54.7546V22.5268H59.2792V26.2414H52.8472V27.8064H67.5268V26.2414H61.229Z" fill="#333333"/>
<path d="M81.6981 17.939H73.1821V19.5039H81.6981V17.939Z" fill="#333333"/>
<path d="M85.0924 22.894V21.3254H69.8018V22.894H73.6518L71.8186 26.2414H71.8257C71.7338 26.3911 71.6809 26.5729 71.6809 26.7654C71.6809 27.3394 72.1436 27.8028 72.7122 27.8028H72.9842H82.136C82.7047 27.8028 83.1568 27.3323 83.1568 26.7619C83.1568 26.5694 83.1038 26.3876 83.0155 26.2343L81.7898 23.9991H79.7694L80.9916 26.2378H73.8355L75.6686 22.8904H85.0888L85.0924 22.894Z" fill="#333333"/>
<path d="M77.3855 12.8589H75.079L69.5371 19.5252H71.8436L77.3855 12.8589Z" fill="#333333"/>
<path d="M79.7621 12.8589H77.4556L82.9975 19.5252H85.304L79.7621 12.8589Z" fill="#333333"/>
</svg>
