<svg width="118" height="96" viewBox="0 0 118 96" fill="none" xmlns="http://www.w3.org/2000/svg">
<path d="M66.0147 11.6448C63.5003 11.6448 61.4658 13.6847 61.4658 16.1991V23.0223L66.0365 27.5657L66.0201 11.6448H66.0147Z" fill="#C42222"/>
<path d="M48.7783 25.3295L51.4454 22.6515L33.5774 4.78345C32.672 5.66158 31.8593 6.63789 31.1611 7.69601L48.7783 25.3241V25.3295Z" fill="#C42222"/>
<path d="M43.6792 29.8728L46.3463 27.2057L29.6618 10.5266C29.1164 11.8465 28.7292 13.2537 28.5273 14.7155L43.6738 29.8728H43.6792Z" fill="#C42222"/>
<path d="M66.8268 46.661C64.7706 48.6954 61.9453 49.9499 58.8255 49.9499C55.7057 49.9499 52.8695 48.69 50.8132 46.6501L33.3651 29.1856C30.6871 26.5076 28.8981 22.9405 28.4727 18.9698L53.4967 43.9993C54.8821 45.3847 56.791 46.241 58.9073 46.241C61.0235 46.241 62.9325 45.3847 64.3179 43.9993L81.7933 26.5185C84.2477 24.1077 85.7694 20.7534 85.7694 17.039C85.7694 9.70308 79.8243 3.75797 72.4883 3.75797C69.074 3.75797 65.9542 5.04517 63.6034 7.16686L58.9509 11.7921L54.3094 7.17232C51.9531 5.05062 48.8388 3.75797 45.419 3.75797C44.4208 3.75797 43.4554 3.86705 42.5173 4.07431L61.4381 22.9951H56.1093L35.9668 2.85802C38.6721 1.05267 41.9173 0 45.4135 0C50.9332 0 55.8366 2.62349 58.9509 6.68689C62.0653 2.61803 66.9686 0 72.4883 0C81.8969 0 89.5274 7.63047 89.5274 17.039C89.5274 21.7897 87.5802 26.0876 84.444 29.1802L66.8268 46.661Z" fill="#C42222"/>
<g clip-path="url(#clip0_1401_1053)">
<path d="M3.59071 84.6387H7.22868V85.6313H3.59071V84.6387ZM2.33078 95.9235C2.79985 95.4926 3.96705 94.4672 5.03063 92.4655L3.41072 91.7073V91.6692H3.59071V88.8439H7.22868V89.6184C7.22868 89.8365 7.19051 89.9784 6.7978 89.9784H4.927L5.21607 91.6692H7.37595C8.04137 91.6692 8.90859 91.4892 8.90859 90.2674V83.1551H1.91626V91.6692H3.41072C3.10528 92.28 2.38532 93.54 0.907227 94.6581L2.33078 95.918V95.9235ZM3.59071 86.8149H7.22868V87.6603H3.59071V86.8149ZM9.89035 82.1733C9.06131 80.8261 8.4668 80.068 7.71411 79.2553L6.32874 80.0625C6.57963 80.3353 6.70508 80.4934 6.99415 80.8534C6.27419 80.9243 6.11057 80.9243 4.58338 81.017C5.08517 80.0462 5.26516 79.5389 5.42879 79.1081L3.62889 78.8899C3.23073 80.008 2.85439 80.8316 2.71258 81.0879C1.88353 81.1043 1.79627 81.1261 1.16358 81.1261L1.27266 82.6915C3.73797 82.5824 6.25783 82.3697 7.91592 82.1679C8.07955 82.4024 8.11227 82.4733 8.43953 83.0297L9.89581 82.1679L9.89035 82.1733ZM10.5558 83.3078C10.5558 84.4041 11.2921 84.7096 12.2629 84.7096H16.0427C17.5208 84.7096 17.6081 84.0441 17.9135 81.8297L16.2227 81.377C16.2064 81.4643 16.0809 82.6915 16.0591 82.7297C15.9882 83.0188 15.8409 83.1606 15.3064 83.1606H12.8411C12.5684 83.1606 12.3011 83.1606 12.3011 82.7297V81.8297C13.272 81.6334 15.5028 81.1261 17.3027 80.2098L16.3645 78.8953C15.5737 79.3099 14.0628 80.0462 12.2957 80.3516V78.8953H10.5503V83.3024L10.5558 83.3078ZM10.5558 90.0929C10.5558 90.5783 10.7358 91.5328 11.9575 91.5328H16.0264C17.3408 91.5328 17.7554 90.7965 18.0444 88.5275L16.2991 88.0039C16.2064 89.0839 16.1736 89.3184 16.0809 89.6075C15.9718 89.8802 15.7373 89.9838 15.47 89.9838H12.8793C12.552 89.9838 12.3011 89.7875 12.3011 89.482V88.3312C13.9047 88.0421 16.19 87.4149 17.3572 86.7985L16.5282 85.2877C15.3391 86.0622 13.4683 86.6185 12.3011 86.8149V85.1404H10.5558V90.0874V90.0929ZM6.79235 92.3237C6.83053 93.5454 6.79235 94.4672 6.61236 95.6508H8.48316C8.5377 95.149 8.5377 94.9853 8.5377 94.3908C8.5377 94.2817 8.5377 93.3273 8.48316 92.3237H6.79235ZM10.4794 92.4328C10.6267 92.9182 10.8776 93.7636 11.0576 95.7653L12.9829 95.5689C12.8193 94.4017 12.552 93.1909 12.192 92.2419L10.4794 92.4382V92.4328ZM14.4555 92.4709C15.2682 93.5345 16.0045 94.7944 16.5445 95.9998L18.2571 95.0999C17.3899 93.3382 16.5282 92.2909 16.1355 91.7892L14.461 92.4709H14.4555Z" fill="#333333"/>
<path d="M20.9574 81.8681H28.4297V78.8464H30.2678V81.8681H37.7728V83.7062H31.0968C32.8258 87.2351 35.3621 89.3949 37.991 90.9439L36.9656 92.9402C34.1403 90.9603 31.8168 88.3314 30.306 85.2552H30.2678V90.9603H33.9603V92.7766H30.2678V95.7818H28.4297V92.7766H24.8463V90.9603H28.4297V85.2552H28.3915C26.8425 88.4077 24.7208 90.8894 21.8028 92.9402L20.7393 91.1403C23.9954 88.964 25.9753 86.946 27.5952 83.7062H20.952V81.8681H20.9574Z" fill="#333333"/>
<path d="M50.0285 85.1788H54.5446V86.5642H50.0285V85.1788ZM48.245 86.5642H42.3599C42.0381 88.5277 41.8908 89.4059 41.2963 91.0094H46.4996V91.0476C45.4033 91.7675 42.938 93.1147 40.6145 93.4802L41.3181 95.1928C44.2689 94.5819 47.0069 92.5639 48.245 91.4512V95.7709H50.0285V91.0203H55.1773C55.0137 92.9457 54.9264 92.9457 54.261 92.9457H52.0302L52.3738 94.8164H54.9864C56.8245 94.8164 56.95 93.6438 57.0536 89.4549H50.034V88.0314H56.3718V83.6244H41.9181V83.5862C42.7253 83.0462 43.3035 82.3426 43.8271 81.6063H44.3125C44.6561 82.2881 44.9397 83.1553 45.0324 83.4607L46.816 82.7571C46.6687 82.3808 46.4015 81.9117 46.2051 81.6063H48.8668V80.0737H44.7106C44.907 79.621 44.9615 79.4791 45.087 79.0864L43.358 78.7974C43.1071 79.4464 42.4199 81.2627 40.5654 82.4135L41.6781 83.6189H41.5145V85.1843H48.245V86.5696V86.5642ZM48.245 89.444H43.6743C43.8162 88.9586 43.9252 88.3096 43.9634 88.0205H48.245V89.444ZM52.0957 81.5954C52.3139 82.0099 52.3848 82.1735 52.9793 83.5207L54.6374 82.7626C54.4246 82.2935 54.0974 81.7372 54.0101 81.5954H57.539V80.0627H52.0139C52.1557 79.7028 52.2266 79.4519 52.3193 79.0919L50.683 78.8192C50.2849 80.1173 49.4777 81.339 48.2504 82.4026L49.6358 83.4662C50.1049 83.0353 50.4812 82.6753 51.2012 81.5954H52.1011H52.0957Z" fill="#333333"/>
<path d="M77.2399 86.1877H60.7354V88.1131H77.2399V86.1877Z" fill="#333333"/>
<path d="M89.4997 88.3696C88.9597 90.5295 87.8962 91.3203 87.2526 91.8276V88.3696H89.4997ZM85.469 86.8915V95.7655H87.2526V91.8221H87.2907L88.3543 93.1748C88.8016 92.8148 89.9742 91.8603 90.8033 89.4659C91.665 91.2658 92.9468 92.5421 93.4649 93.0657L94.6158 91.6639C92.9086 90.2949 92.385 89.3623 91.9705 88.3696H94.6158V93.2675C94.6158 93.9165 94.474 93.9493 93.7867 93.9493H92.2596L92.5486 95.7655H95.1776C96.3993 95.7655 96.3993 94.6856 96.3993 94.3801V86.8915H91.4141C91.5232 86.2806 91.5396 85.757 91.5778 85.1843H97.0865V83.6026H84.9018V85.1843H89.8542C89.8542 85.9424 89.8379 86.3351 89.7615 86.8915H85.4799H85.469ZM82.191 95.7273C83.0746 94.5383 84.5473 92.5039 84.5473 86.6733V82.2117H97.0756V80.5373H90.1979V78.9556H88.3816V80.5373H82.7855V86.7279C82.7855 87.0333 82.7692 87.3605 82.7474 87.6114C81.2529 88.2441 80.7293 88.4023 80.1348 88.5659L80.3857 90.584C81.1765 90.2622 81.662 90.0277 82.5619 89.5913C82.2183 91.6421 81.9674 92.5802 80.6748 94.342L82.1856 95.7273H82.191ZM80.0693 82.5717C80.5548 83.8317 80.7893 85.1079 80.882 86.1333L82.5728 85.5934C82.3219 84.0116 82.1038 83.1826 81.5856 81.9936L80.0748 82.5717H80.0693Z" fill="#333333"/>
<path d="M107.554 83.6135V82.0863H114.863V83.6135H107.554ZM107.483 85.2334H114.934V84.4207H116.57V80.3901H112.087V78.8574H110.287V80.3901H105.858V84.4207H107.478V85.2334H107.483ZM100.464 95.8528H102.193V80.9846H103.813C103.595 82.3536 103.202 83.4881 102.482 85.2661C103.273 86.2752 103.905 87.9114 103.905 89.1168C103.905 89.9459 103.796 90.464 103.273 90.464H102.444L102.624 92.2476H103.289C105.613 92.2476 105.613 90.1804 105.613 89.6023C105.613 89.1332 105.596 86.9897 104.211 85.1734C105.002 82.9754 105.275 82.0591 105.525 80.87V79.3428H100.469V95.8474L100.464 95.8528ZM117.007 87.0333H105.864V88.7405H108.274C108.22 92.7712 105.684 93.8347 104.353 94.1947L105.198 95.8528C107.5 95.062 109.971 93.2402 110.112 88.7405H111.694V93.6548C111.694 95.4547 111.749 95.6892 113.439 95.6892H115.076C116.679 95.6892 116.93 95.5801 117.094 91.9803L115.332 91.6203C115.316 92.2476 115.239 93.4748 115.185 93.7093C115.13 93.8729 115.043 94.0529 114.699 94.0529H113.909C113.478 94.0529 113.439 93.6766 113.439 93.442V88.746H117.001V87.0388L117.007 87.0333Z" fill="#333333"/>
<path d="M78.7389 63.711V63.0674H77.5553V63.711H74.4464V63.0674H73.2628V63.711H70.8193V64.4909H73.2628V64.9218H74.4464V64.4909H77.5553V64.9218H78.7389V64.4909H81.2642V63.711H78.7389Z" fill="#333333"/>
<path d="M76.5905 68.8488V68.4724H79.3721C79.7158 68.4724 79.9939 68.1943 79.9939 67.8507V67.6979V65.1235H71.998V67.8561C71.998 68.1997 72.2762 68.4779 72.6198 68.4779H73.1761H75.4015V68.8542H71.6162V72.2468H72.7998V69.6287H75.4015V70.8614H74.5506V70.2778H73.367V71.1995C73.367 71.5432 73.6452 71.8213 73.9888 71.8213H77.9922C78.3358 71.8213 78.614 71.5432 78.614 71.1995V70.2778H77.4359V70.8614H76.585V69.6287H79.1867V71.085H78.7776L79.1921 72.2031C79.1921 72.2031 80.3703 72.3722 80.3703 71.2868V68.8488H76.585H76.5905ZM78.8158 67.6925H76.5905V67.1798H78.8158V67.6925ZM78.8158 66.4053H76.5905V65.8926H78.8158V66.4053ZM73.1816 65.8926H75.4069V66.4053H73.1816V65.8926ZM73.1816 67.6925V67.1798H75.4069V67.6925H73.1816Z" fill="#333333"/>
<path d="M87.3023 71.0687V68.838H90.0676V67.8998H87.3023V65.9636H90.6567V65.0255H87.3023V63.0674H86.1188V65.0255H83.6371L84.0134 63.6564H82.8681L81.9463 67.0381H83.0862L83.3808 65.9636H86.1188V67.8998H83.3808V68.838H86.1188V71.0687H82.2299V72.0069H91.1149V71.0687H87.3023Z" fill="#333333"/>
<path d="M99.6884 66.0891H94.5342V67.0272H99.6884V66.0891Z" fill="#333333"/>
<path d="M101.745 69.0617V68.1235H92.4893V69.0617H94.8182L93.7055 71.0688C93.651 71.1615 93.6183 71.2652 93.6183 71.3852C93.6183 71.7288 93.8964 72.007 94.2401 72.007H94.4037H99.9452C100.289 72.007 100.562 71.7233 100.562 71.3797C100.562 71.2652 100.529 71.1561 100.474 71.0634L99.7325 69.7216H98.5107L99.2525 71.0634H94.9218L96.0291 69.0562H101.734L101.745 69.0617Z" fill="#333333"/>
<path d="M97.0817 63.04H95.6854L92.3311 67.038H93.7273L97.0817 63.04Z" fill="#333333"/>
<path d="M98.5158 63.04H97.125L100.474 67.038H101.87L98.5158 63.04Z" fill="#333333"/>
<path d="M22.7073 67.8617C22.6964 67.9107 22.6582 67.9435 22.5655 67.9544V68.898H23.8199V69.2852H22.5655V71.8051C22.5655 72.3505 22.32 72.3505 20.9347 72.3505C20.9183 72.2305 20.8583 72.0832 20.7983 71.9742C21.0765 71.9742 21.3383 71.9796 21.5401 71.9796C22.1128 71.9796 22.151 71.9796 22.151 71.8051V69.2852H19.0802V68.9143L18.0112 69.2361V72.345H17.6076V69.3507C17.144 69.4925 16.7349 69.6125 16.4076 69.7052C16.4076 69.7652 16.364 69.8143 16.3258 69.8252L16.124 69.3452C16.5167 69.247 17.0403 69.0998 17.613 68.9525V66.7981H16.7785C16.6858 67.3271 16.5604 67.8071 16.4186 68.1671C16.3531 68.1071 16.2167 68.0144 16.124 67.9653C16.3858 67.2835 16.5385 66.1327 16.6476 65.0309L17.1603 65.1509C17.144 65.2109 17.1003 65.2436 16.9912 65.2436C16.9585 65.62 16.9094 66.0181 16.8494 66.4054H17.613V64.5891L18.1585 64.6328C18.1475 64.6818 18.1094 64.7146 18.0166 64.7309V66.4054H19.162V66.7981H18.0166V68.8434L19.2166 68.5053L19.2602 68.8652L19.1511 68.898H22.151V67.8235L22.7073 67.8671V67.8617ZM21.5401 67.2835H23.9018V67.6762H18.9602V67.2835H21.1365V66.0454H19.4075V65.6581H21.1365V64.5728L21.6928 64.6055C21.6819 64.6546 21.6437 64.6982 21.5401 64.7091V65.6581H23.4V66.0454H21.5401V67.2835ZM20.5638 71.3087C20.3783 70.9051 19.9147 70.2997 19.4784 69.8688L19.8056 69.6997C20.2365 70.1088 20.711 70.7088 20.8965 71.1124L20.5583 71.3033L20.5638 71.3087Z" fill="#333333"/>
<path d="M28.6083 69.6397V71.6577C29.1046 71.7559 29.65 71.7995 30.25 71.7995C30.4791 71.7995 31.979 71.7995 32.3117 71.7886C32.2353 71.8923 32.159 72.0832 32.1426 72.2032H30.2282C28.3301 72.2032 26.9774 71.8759 26.192 70.2451C25.892 71.145 25.4448 71.8814 24.823 72.3722C24.7576 72.2959 24.6212 72.1813 24.5176 72.105C25.4448 71.4068 25.963 70.1033 26.1757 68.4997L26.7211 68.5924C26.7047 68.6524 26.6556 68.6743 26.5629 68.6852C26.5138 69.0397 26.4429 69.3833 26.3611 69.7051C26.7375 70.7414 27.3701 71.2759 28.2046 71.5486V67.6161H25.9084V67.2234H31.0081V67.6161H28.6137V69.2579H31.2863V69.6506H28.6137L28.6083 69.6397ZM25.3193 66.0235V67.3271H24.9157V65.6308H28.1883V64.5618L28.761 64.6054C28.7501 64.6545 28.7119 64.6981 28.6083 64.709V65.6363H31.9135V67.3325H31.5045V66.029H25.3248L25.3193 66.0235Z" fill="#333333"/>
<path d="M40.6406 71.4886V71.8922H33.8392V72.3559H33.4355V65.0908H40.4606V65.4835H33.8392V71.4832H40.6406V71.4886ZM40.297 68.2925V68.6688H37.5644C38.0117 69.7106 38.9498 70.3596 40.2697 70.6214C40.1661 70.7032 40.057 70.8669 40.0024 70.9814C38.7425 70.6814 37.8317 70.0378 37.319 69.0288C37.0681 69.7596 36.3972 70.5014 34.6627 71.0359C34.6137 70.9432 34.5046 70.8014 34.4173 70.7141C36.299 70.1687 36.8444 69.3888 36.9972 68.6633H34.3846V68.287H37.0517C37.0626 68.2052 37.0626 68.1288 37.0626 68.0525V66.9616H35.5845C35.3663 67.338 35.1045 67.6761 34.8373 67.9216C34.7609 67.8561 34.6191 67.7688 34.5155 67.7089C35.0118 67.2725 35.4591 66.5307 35.71 65.7508L36.2118 65.8926C36.1954 65.9417 36.1463 65.9689 36.0536 65.9689C35.9772 66.1762 35.8954 66.3889 35.7863 66.5907H39.8225V66.9616H37.4662V68.0525C37.4662 68.1288 37.4662 68.2106 37.4553 68.287H40.297V68.2925Z" fill="#333333"/>
<path d="M49.1498 65.8109H42.9974V68.1889C42.9974 69.4761 42.8447 71.1887 41.8029 72.3669C41.7429 72.285 41.5902 72.1378 41.5084 72.0887C42.2338 71.2706 42.4847 70.2124 42.5665 69.2307C42.1902 69.4488 41.8247 69.667 41.5738 69.8197C41.5738 69.8688 41.5466 69.9288 41.4975 69.9561L41.2793 69.5252C41.6229 69.367 42.092 69.1052 42.5883 68.8216C42.5992 68.6034 42.5992 68.3907 42.5992 68.1889V65.44H45.4572V64.5728L46.0299 64.6164C46.019 64.6655 45.9808 64.7091 45.8772 64.7146V65.44H49.1443V65.8109H49.1498ZM42.0156 67.938C41.9502 67.4908 41.7047 66.8035 41.4375 66.2745L41.7756 66.1545C42.0593 66.6781 42.3047 67.3544 42.3701 67.7853L42.0156 67.938ZM47.0335 67.0708C47.2244 67.3544 47.4808 67.6326 47.7644 67.8889C48.0153 67.6762 48.3207 67.3926 48.4953 67.2017L48.8661 67.4471C48.8389 67.4908 48.7843 67.5071 48.7243 67.4908C48.5389 67.6599 48.2444 67.8998 47.9935 68.0853C48.3698 68.3798 48.7898 68.6143 49.1934 68.7671C49.1116 68.8434 49.0025 68.9798 48.9316 69.078C48.6371 68.9525 48.3425 68.7834 48.0589 68.5762V70.4688H46.3354V71.8978C46.3354 72.1269 46.2863 72.236 46.0845 72.3014C45.8936 72.3614 45.5554 72.3669 44.9773 72.3669C44.9609 72.2469 44.8955 72.116 44.8355 72.0069C45.0809 72.0178 45.2882 72.0178 45.4572 72.0178H45.7954C45.9154 72.0178 45.9372 71.9851 45.9372 71.8923V70.4742H44.2464V68.598C43.9955 68.7834 43.7064 68.9525 43.4064 69.0998C43.3465 69.007 43.2319 68.8871 43.1283 68.8325C43.5755 68.6198 43.9628 68.3689 44.3064 68.1016C44.0937 67.8889 43.8046 67.638 43.5428 67.4635L43.7937 67.2617C44.0446 67.4362 44.3555 67.6708 44.5682 67.8726C44.8355 67.6217 45.0645 67.349 45.2554 67.0817H43.4337V66.7272H45.4845C45.6427 66.449 45.7627 66.1654 45.839 65.8927L46.3681 65.9527C46.3517 66.0181 46.3081 66.0509 46.199 66.0509C46.1227 66.269 46.0299 66.4981 45.9045 66.7217H49.0298V67.0763H47.039L47.0335 67.0708ZM45.0264 70.8615C45.01 70.9215 44.9445 70.9378 44.8736 70.9269C44.53 71.3905 43.9573 71.876 43.461 72.1814C43.3955 72.1051 43.2701 71.9905 43.1774 71.9305C43.6573 71.6524 44.2191 71.1887 44.5573 70.6924L45.0264 70.8615ZM47.6826 69.1652V68.5162H44.6227V69.1652H47.6826ZM47.6826 70.1415V69.4761H44.6227V70.1415H47.6826ZM45.6972 67.0763C45.4518 67.4635 45.1354 67.8398 44.7373 68.1944H47.5789C47.2026 67.8562 46.8753 67.469 46.619 67.0763H45.6918H45.6972ZM48.6152 72.2305C48.3371 71.8433 47.7426 71.2706 47.2299 70.8778L47.5244 70.7088C48.0262 71.0851 48.6316 71.6523 48.9261 72.0178L48.6152 72.225V72.2305Z" fill="#333333"/>
<path d="M49.9621 67.0106C50.5676 67.1961 51.3148 67.5233 51.713 67.7906L51.4948 68.1506C51.1184 67.8833 50.3712 67.5288 49.7549 67.327L49.9676 67.0106H49.9621ZM50.0821 71.9685C50.5348 71.2977 51.1839 70.1359 51.6475 69.1705C51.8602 69.3396 51.9093 69.3778 51.9529 69.4323C51.5221 70.3377 50.9275 71.4504 50.513 72.094C50.5294 72.1267 50.5403 72.1594 50.5403 72.1976C50.5403 72.2358 50.5294 72.2576 50.513 72.2794L50.0821 71.9685ZM50.4203 64.638C51.0257 64.8671 51.7566 65.2326 52.1329 65.538L51.8984 65.8816C51.5275 65.5816 50.7966 65.1835 50.1912 64.9544L50.4203 64.6326V64.638ZM57.5326 68.2597V68.6524H54.2274L54.4946 68.7451C54.4673 68.7942 54.4128 68.8269 54.3255 68.8269C54.031 69.5905 53.5783 70.6595 53.1747 71.4395C54.1237 71.3904 55.2746 71.3304 56.4036 71.254C56.0818 70.785 55.7055 70.2941 55.3346 69.8905L55.6782 69.705C56.3491 70.4468 57.0963 71.4558 57.4072 72.1104L57.0363 72.3285C56.9381 72.1213 56.8018 71.8758 56.6327 71.6031C55.0455 71.7285 53.3438 71.8376 52.302 71.8976C52.2911 71.9631 52.242 72.0013 52.182 72.0176L51.9966 71.494L52.722 71.4613C53.1365 70.6868 53.6219 69.5087 53.9165 68.6469H51.9857V68.2542H54.4892V66.4489H52.3947V66.0452H54.4892V64.5671L55.0782 64.6162C55.0673 64.6926 55.0019 64.7417 54.9037 64.758V66.0452H57.0308V66.4489H54.9037V68.2542H57.5272L57.5326 68.2597Z" fill="#333333"/>
<path d="M62.3763 64.9164C62.3654 64.9764 62.3109 65.0092 62.2072 65.0255L62.1963 65.151C62.2618 66.1491 62.7199 70.4307 66.047 71.9251C65.9379 72.0069 65.8125 72.1542 65.7361 72.2687C63.2981 71.1343 62.3927 68.538 62.0381 66.7654H62.0327C61.7382 68.5217 60.92 71.0034 58.4165 72.2524C58.3402 72.1597 58.2147 72.0342 58.0947 71.9579C61.6345 70.2452 61.7109 66.0127 61.7654 64.8728L62.3708 64.9164H62.3763Z" fill="#333333"/>
</g>
<defs>
<clipPath id="clip0_1401_1053">
<rect width="116.186" height="32.9599" fill="white" transform="translate(0.907227 63.04)"/>
</clipPath>
</defs>
</svg>
