<?xml version="1.0" encoding="utf-8"?>
<!-- Generator: Adobe Illustrator 26.3.1, SVG Export Plug-In . SVG Version: 6.00 Build 0)  -->
<svg version="1.1" id="レイヤー_1" xmlns="http://www.w3.org/2000/svg" xmlns:xlink="http://www.w3.org/1999/xlink" x="0px"
	 y="0px" viewBox="0 0 61.5 50.5" style="enable-background:new 0 0 61.5 50.5;" xml:space="preserve">
<style type="text/css">
	.st0{fill:#C42222;}
</style>
<path class="st0" d="M37.5,11.6c-2.5,0-4.5,2-4.5,4.6V23l4.6,4.5L37.5,11.6L37.5,11.6z"/>
<path class="st0" d="M20.3,25.3l2.7-2.7L5.1,4.8C4.2,5.7,3.4,6.6,2.7,7.7L20.3,25.3L20.3,25.3z"/>
<path class="st0" d="M15.2,29.9l2.7-2.7L1.2,10.5c-0.5,1.3-0.9,2.7-1.1,4.2L15.2,29.9L15.2,29.9z"/>
<path class="st0" d="M38.4,46.7c-2.1,2-4.9,3.3-8,3.3s-6-1.3-8-3.3L4.9,29.2C2.2,26.5,0.4,22.9,0,19l25,25c1.4,1.4,3.3,2.2,5.4,2.2
	c2.1,0,4-0.9,5.4-2.2l17.5-17.5c2.5-2.4,4-5.8,4-9.5c0-7.3-5.9-13.3-13.3-13.3c-3.4,0-6.5,1.3-8.9,3.4l-4.7,4.6l-4.6-4.6
	c-2.4-2.1-5.5-3.4-8.9-3.4c-1,0-2,0.1-2.9,0.3L33,23h-5.3L7.5,2.9c2.7-1.8,6-2.9,9.4-2.9c5.5,0,10.4,2.6,13.5,6.7
	C33.6,2.6,38.5,0,44,0c9.4,0,17,7.6,17,17c0,4.8-1.9,9-5.1,12.1L38.4,46.7z"/>
</svg>
