<?xml version="1.0" encoding="utf-8"?>
<!-- Generator: Adobe Illustrator 25.4.6, SVG Export Plug-In . SVG Version: 6.00 Build 0)  -->
<svg version="1.1" id="レイヤー_1" xmlns="http://www.w3.org/2000/svg" xmlns:xlink="http://www.w3.org/1999/xlink" x="0px"
	 y="0px" viewBox="0 0 306 185" style="enable-background:new 0 0 306 185;" xml:space="preserve">
<style type="text/css">
	.st0{fill:#FFDF7F;}
	.st1{fill:url(#SVGID_1_);}
	.st2{fill:none;}
</style>
<path class="st0" d="M301.6,139.3c-13.8,47.3-140,62.2-210.6,22.9C22.1,123.9-41.1,46.4,38.9,8.7c54.2-25.5,93,9.5,134.8,49.5
	C215.3,98.1,320.7,73.7,301.6,139.3z"/>
<linearGradient id="SVGID_1_" gradientUnits="userSpaceOnUse" x1="47.6253" y1="138.0069" x2="224.5135" y2="64.907" gradientTransform="matrix(-1 0 0 -1 302 185.8898)">
	<stop  offset="0" style="stop-color:#FFDF7F"/>
	<stop  offset="1" style="stop-color:#FFB649"/>
</linearGradient>
<path class="st1" d="M301.6,139.3c-13.8,47.3-140,62.2-210.6,22.9C22.1,123.9-41.1,46.4,38.9,8.7c54.2-25.5,93,9.5,134.8,49.5
	C215.3,98.1,320.7,73.7,301.6,139.3z"/>
<path class="st2" d="M301.6,139.3c-13.8,47.3-140,62.2-210.6,22.9C22.1,123.9-41.1,46.4,38.9,8.7c54.2-25.5,93,9.5,134.8,49.5
	C215.3,98.1,320.7,73.7,301.6,139.3z"/>
</svg>
