<?xml version="1.0" encoding="utf-8"?>
<!-- Generator: Adobe Illustrator 25.4.6, SVG Export Plug-In . SVG Version: 6.00 Build 0)  -->
<svg version="1.1" id="レイヤー_1" xmlns="http://www.w3.org/2000/svg" xmlns:xlink="http://www.w3.org/1999/xlink" x="0px"
	 y="0px" viewBox="0 0 146.6 91" style="enable-background:new 0 0 146.6 91;" xml:space="preserve">
<style type="text/css">
	.st0{fill:#FFDF7F;}
	.st1{fill:url(#SVGID_1_);}
	.st2{fill:none;}
</style>
<path class="st0" d="M142.6,70.9C131.8,99.4,63.8,92.6,38.9,79C11.8,64.2-11.5,31.1,8.9,7C20.6-5.4,44.1,0.6,71.5,23.6
	C98.7,46.4,158.7,27.9,142.6,70.9z"/>
<linearGradient id="SVGID_1_" gradientUnits="userSpaceOnUse" x1="24.6841" y1="57.6901" x2="127.7551" y2="37.0435" gradientTransform="matrix(-1 0 0 -1 146.3199 91.8898)">
	<stop  offset="0" style="stop-color:#F3FFA7"/>
	<stop  offset="1" style="stop-color:#FFF965"/>
</linearGradient>
<path class="st1" d="M142.6,70.9C131.8,99.4,63.8,92.6,38.9,79C11.8,64.2-11.5,31.1,8.9,7C20.6-5.4,44.1,0.6,71.5,23.6
	C98.7,46.4,158.7,27.9,142.6,70.9z"/>
<path class="st2" d="M142.6,70.9C131.8,99.4,63.8,92.6,38.9,79C11.8,64.2-11.5,31.1,8.9,7C20.6-5.4,44.1,0.6,71.5,23.6
	C98.7,46.4,158.7,27.9,142.6,70.9z"/>
</svg>
