<svg width="778" height="181" viewBox="0 0 778 181" fill="none" xmlns="http://www.w3.org/2000/svg">
<path d="M66.3732 179.494H69.9214L136.295 2.5104H131.494L68.2517 171.712L5.0093 2.5104H0L66.3732 179.494Z" fill="#F2F2F2"/>
<path d="M109.986 178.239H114.787L135.659 125.52H228.748L249.62 178.239H254.629L184.291 1.2552H180.325L109.986 178.239ZM137.746 120.499L182.203 8.53536L226.661 120.499H137.746Z" fill="#F2F2F2"/>
<path d="M263.104 178.239H267.487V11.5478L378.526 178.239H382.492V2.5104H378.109V169.201L267.07 2.5104H263.104V178.239Z" fill="#F2F2F2"/>
<path d="M453.514 180.749C484.405 180.749 503.398 160.164 503.398 134.055V133.553C503.398 109.705 490.875 95.8974 452.888 86.6089C416.988 77.8225 405.717 66.5257 405.717 45.1872V44.6852C405.717 24.0999 422.624 5.0208 448.296 5.0208C466.246 5.0208 482.526 12.803 495.467 24.6019L498.389 20.0832C485.031 7.78225 467.916 0 448.714 0C421.163 0 401.125 20.3343 401.125 44.9362V45.4383C401.125 70.0402 414.901 82.8433 451.01 91.6297C487.953 100.667 498.807 112.215 498.807 133.804V134.307C498.807 157.904 481.274 175.728 453.932 175.728C432.642 175.728 413.857 165.938 399.038 148.616L395.699 152.632C411.353 170.456 431.181 180.749 453.514 180.749Z" fill="#F2F2F2"/>
<path d="M502.112 178.239H506.913L527.785 125.52H620.874L641.746 178.239H646.755L576.417 1.2552H572.451L502.112 178.239ZM529.872 120.499L574.329 8.53536L618.787 120.499H529.872Z" fill="#F2F2F2"/>
<path d="M676.863 178.239H681.455V104.684L743.028 2.5104H737.601L679.368 99.914L620.509 2.5104H615.082L676.863 104.684V178.239Z" fill="#F2F2F2"/>
<path d="M785.92 178.239H790.512V109.202H836.43C871.704 109.202 893.411 89.8724 893.411 55.7309V55.2289C893.411 22.3426 872.956 2.5104 837.265 2.5104H785.92V178.239ZM790.512 104.182V7.53121H836.848C869.617 7.53121 888.819 25.6061 888.819 55.4799V55.982C888.819 87.111 868.782 104.182 836.43 104.182H790.512Z" fill="#F2F2F2"/>
<path d="M904.675 178.239H999.017V173.218H909.267V2.5104H904.675V178.239Z" fill="#F2F2F2"/>
<path d="M1058.39 181C1093.66 181 1117.46 154.139 1117.46 100.416V2.5104H1112.86V100.667C1112.86 150.875 1091.37 175.979 1058.6 175.979C1026.25 175.979 1003.91 150.875 1003.91 100.416V2.5104H999.321V100.416C999.321 154.39 1023.53 181 1058.39 181Z" fill="#F2F2F2"/>
<path d="M1186.12 180.749C1217.01 180.749 1236 160.164 1236 134.055V133.553C1236 109.705 1223.48 95.8974 1185.49 86.6089C1149.59 77.8225 1138.32 66.5257 1138.32 45.1872V44.6852C1138.32 24.0999 1155.23 5.0208 1180.9 5.0208C1198.85 5.0208 1215.13 12.803 1228.07 24.6019L1230.99 20.0832C1217.63 7.78225 1200.52 0 1181.32 0C1153.76 0 1133.73 20.3343 1133.73 44.9362V45.4383C1133.73 70.0402 1147.5 82.8433 1183.61 91.6297C1220.55 100.667 1231.41 112.215 1231.41 133.804V134.307C1231.41 157.904 1213.88 175.728 1186.53 175.728C1165.24 175.728 1146.46 165.938 1131.64 148.616L1128.3 152.632C1143.95 170.456 1163.78 180.749 1186.12 180.749Z" fill="#F2F2F2"/>
</svg>
